<?xml version="1.0" encoding="UTF-8"?>
<svg id="Layer_1" xmlns="http://www.w3.org/2000/svg" xmlns:xlink="http://www.w3.org/1999/xlink"
    viewBox="0 0 742.9 742.9">
    <defs>
        <style>
            .cls-1{fill:#2a6cb3;}.cls-2{fill:url(#linear-gradient-2);}.cls-3{fill:#030528;}.cls-4{fill:#fff;}.cls-5{fill:#ffd305;}.cls-6{stroke-width:29px;}.cls-6,.cls-7{stroke:#111152;stroke-miterlimit:10;}.cls-6,.cls-8{fill:none;}.cls-9{fill:url(#linear-gradient-17);}.cls-10{fill:#072f4b;}.cls-11{fill:#250003;}.cls-12{fill:#fe4e13;}.cls-13{fill:#fcb003;}.cls-7{stroke-width:9px;}.cls-7,.cls-14{fill:#111152;}.cls-15{fill:#013a59;}.cls-16{fill:#340f1a;}.cls-17{fill:url(#linear-gradient-15);}.cls-18{fill:url(#linear-gradient-18);}.cls-19{fill:#e9e692;}.cls-20{fill:#010407;}.cls-21{fill:url(#linear-gradient-14);}.cls-22{fill:url(#linear-gradient-20);}.cls-23{fill:url(#linear-gradient-6);}.cls-24{fill:#05586d;}.cls-25{fill:#1c1285;}.cls-26{fill:#fdb805;}.cls-27{fill:#c1f5b1;}.cls-28{fill:url(#linear-gradient-11);}.cls-29{fill:#30022b;}.cls-30{fill:#fc3e32;}.cls-31{fill:#010328;}.cls-32{fill:url(#linear-gradient-10);}.cls-33{fill:#fe4a33;}.cls-34{fill:#19070d;}.cls-35{fill:#02ae7a;}.cls-36{fill:#06db8f;}.cls-37{fill:#f39d02;}.cls-38{fill:#ad2c4b;}.cls-39{fill:#ffa805;}.cls-40{fill:#fe6f0c;}.cls-41{fill:#fd3514;}.cls-42{fill:url(#linear-gradient-16);}.cls-43{fill:#fe1241;}.cls-44{fill:#fcf403;}.cls-45{fill:#ff8604;}.cls-46{fill:#7a2662;}.cls-47{fill:url(#linear-gradient-21);}.cls-48{fill:#f13232;}.cls-49{fill:#0ed4b7;}.cls-50{fill:#ffe103;}.cls-51{fill:#c20515;}.cls-52{fill:#05443c;}.cls-53{fill:#990016;}.cls-54{fill:url(#linear-gradient-5);}.cls-55{fill:#050c1d;}.cls-56{fill:#ffca02;}.cls-57{fill:#750331;}.cls-58{fill:#3246c5;}.cls-59{fill:#ee1a2a;}.cls-60{fill:url(#linear-gradient-7);}.cls-61{fill:#f25724;}.cls-62{fill:#fc9103;}.cls-63{fill:#f64532;}.cls-64{fill:url(#linear-gradient-9);}.cls-65{fill:url(#linear-gradient-22);}.cls-66{fill:transparent;}.cls-67{fill:#ff692a;}.cls-68{fill:url(#linear-gradient-3);}.cls-69{fill:#1548bb;}.cls-70{fill:#f9ed1e;}.cls-71{fill:#fae80f;}.cls-72{fill:url(#linear-gradient);}.cls-73{fill:url(#linear-gradient-19);}.cls-74{fill:#460102;}.cls-75{fill:url(#linear-gradient-4);}.cls-76{fill:#e22d41;}.cls-77{fill:#055a4d;}.cls-78{fill:#01162e;}.cls-79{fill:#7d6196;}.cls-80{fill:url(#linear-gradient-8);}.cls-81{fill:#da002d;}.cls-82{fill:#3d3aac;}.cls-83{fill:url(#linear-gradient-12);}.cls-84{fill:#012040;}.cls-85{fill:url(#linear-gradient-13);}.cls-86{fill:#1b7ad7;}</style>
        <linearGradient id="linear-gradient" x1="1287.97" y1="518.95" x2="951.82" y2="778.17"
            gradientTransform="translate(-16.45 631.36) scale(.5 -.5)"
            gradientUnits="userSpaceOnUse">
            <stop offset="0" stop-color="#017059" />
            <stop offset="1" stop-color="#04e193" />
        </linearGradient>
        <linearGradient id="linear-gradient-2" x1="189.98" y1="358.07" x2="46.75" y2="464.44"
            gradientTransform="translate(0 755) scale(1 -1)" gradientUnits="userSpaceOnUse">
            <stop offset="0" stop-color="#048168" />
            <stop offset="1" stop-color="#009970" />
        </linearGradient>
        <linearGradient id="linear-gradient-3" x1="661.7" y1="-70.31" x2="692.42" y2="-94.1"
            gradientTransform="translate(-66.35 470.7) rotate(-27.92) scale(.5)"
            gradientUnits="userSpaceOnUse">
            <stop offset="0" stop-color="#ff5b36" />
            <stop offset="1" stop-color="#d21f5b" />
        </linearGradient>
        <linearGradient id="linear-gradient-4" x1="648.13" y1="-90.62" x2="578.24" y2="-28.17"
            gradientTransform="translate(-66.35 470.7) rotate(-27.92) scale(.5)"
            gradientUnits="userSpaceOnUse">
            <stop offset="0" stop-color="#ffdc00" />
            <stop offset="1" stop-color="#fbfb1d" />
        </linearGradient>
        <linearGradient id="linear-gradient-5" x1="815.01" y1="345.59" x2="837.31" y2="336.9"
            gradientTransform="translate(-66.35 470.7) rotate(-27.92) scale(.5)"
            gradientUnits="userSpaceOnUse">
            <stop offset="0" stop-color="#7a9080" />
            <stop offset="1" stop-color="#0578af" />
        </linearGradient>
        <linearGradient id="linear-gradient-6" x1="166.6" y1="479.05" x2="375.7" y2="479.05"
            gradientTransform="translate(0 903) scale(1 -1)" gradientUnits="userSpaceOnUse">
            <stop offset="0" stop-color="#e8211c" />
            <stop offset="1" stop-color="#ff4828" />
        </linearGradient>
        <linearGradient id="linear-gradient-7" x1="169.9" y1="425.68" x2="172.34" y2="445.05"
            gradientTransform="translate(0 903) scale(1 -1)" gradientUnits="userSpaceOnUse">
            <stop offset="0" stop-color="#e8211c" />
            <stop offset="1" stop-color="#ff4828" />
        </linearGradient>
        <linearGradient id="linear-gradient-8" x1="178.02" y1="439.39" x2="184.83" y2="493.44"
            gradientTransform="translate(0 903) scale(1 -1)" gradientUnits="userSpaceOnUse">
            <stop offset="0" stop-color="#e8211c" />
            <stop offset="1" stop-color="#ff4828" />
        </linearGradient>
        <linearGradient id="linear-gradient-9" x1="219.21" y1="438.85" x2="221.86" y2="459.89"
            gradientTransform="translate(0 903) scale(1 -1)" gradientUnits="userSpaceOnUse">
            <stop offset="0" stop-color="#e8211c" />
            <stop offset="1" stop-color="#ff4828" />
        </linearGradient>
        <linearGradient id="linear-gradient-10" x1="238.94" y1="456.77" x2="249.61" y2="541.33"
            gradientTransform="translate(0 903) scale(1 -1)" gradientUnits="userSpaceOnUse">
            <stop offset="0" stop-color="#e8211c" />
            <stop offset="1" stop-color="#ff4828" />
        </linearGradient>
        <linearGradient id="linear-gradient-11" x1="320.95" y1="463.04" x2="321.42" y2="466.74"
            gradientTransform="translate(0 903) scale(1 -1)" gradientUnits="userSpaceOnUse">
            <stop offset="0" stop-color="#e8211c" />
            <stop offset="1" stop-color="#ff4828" />
        </linearGradient>
        <linearGradient id="linear-gradient-12" x1="373.16" y1="512.67" x2="373.54" y2="515.71"
            gradientTransform="translate(0 903) scale(1 -1)" gradientUnits="userSpaceOnUse">
            <stop offset="0" stop-color="#e8211c" />
            <stop offset="1" stop-color="#ff4828" />
        </linearGradient>
        <linearGradient id="linear-gradient-13" x1="375.6" y1="515.64" x2="375.61" y2="515.77"
            gradientTransform="translate(0 903) scale(1 -1)" gradientUnits="userSpaceOnUse">
            <stop offset="0" stop-color="#e8211c" />
            <stop offset="1" stop-color="#ff4828" />
        </linearGradient>
        <linearGradient id="linear-gradient-14" x1="237.45" y1="515.15" x2="245.68" y2="497.72"
            gradientTransform="translate(0 903) scale(1 -1)" gradientUnits="userSpaceOnUse">
            <stop offset="0" stop-color="#9b0001" />
            <stop offset="1" stop-color="#680206" />
        </linearGradient>
        <linearGradient id="linear-gradient-15" x1="753.38" y1="588.2" x2="680.81" y2="608.44"
            gradientTransform="translate(-16.45 631.36) scale(.5 -.5)"
            gradientUnits="userSpaceOnUse">
            <stop offset="0" stop-color="#030509" />
            <stop offset="1" stop-color="#0f0d32" />
        </linearGradient>
        <linearGradient id="linear-gradient-16" x1="733.99" y1="167.36" x2="731.28" y2="397.46"
            gradientTransform="translate(-16.45 631.36) scale(.5 -.5)"
            gradientUnits="userSpaceOnUse">
            <stop offset="0" stop-color="#fdc806" />
            <stop offset="1" stop-color="#fae005" />
        </linearGradient>
        <linearGradient id="linear-gradient-17" x1="428.36" y1="196.34" x2="166.02" y2="243.4"
            gradientTransform="translate(0 755) scale(1 -1)" gradientUnits="userSpaceOnUse">
            <stop offset="0" stop-color="#000" />
            <stop offset="1" stop-color="#0a051d" />
        </linearGradient>
        <linearGradient id="linear-gradient-18" x1="1409.58" y1="639.36" x2="1344.53" y2="711.5"
            gradientTransform="translate(-118.35 60.85) scale(.5)" gradientUnits="userSpaceOnUse">
            <stop offset="0" stop-color="#fe632b" />
            <stop offset="1" stop-color="#ff3c37" />
        </linearGradient>
        <linearGradient id="linear-gradient-19" x1="348.35" y1="877.31" x2="357.42" y2="790.24"
            gradientTransform="translate(-263.35 553.99) rotate(51.7) scale(1 -1)"
            gradientUnits="userSpaceOnUse">
            <stop offset="0" stop-color="#d6011b" />
            <stop offset="1" stop-color="#ff0228" />
        </linearGradient>
        <linearGradient id="linear-gradient-20" x1="371.46" y1="773.48" x2="312.41" y2="942.88"
            gradientTransform="translate(-263.35 553.99) rotate(51.7) scale(1 -1)"
            gradientUnits="userSpaceOnUse">
            <stop offset="0" stop-color="#4a0200" />
            <stop offset="1" stop-color="#150029" />
        </linearGradient>
        <linearGradient id="linear-gradient-21" x1="199.11" y1="536.6" x2="158.41" y2="638.12"
            gradientTransform="translate(267.72 814.77) rotate(-28.54) scale(1 -1)"
            gradientUnits="userSpaceOnUse">
            <stop offset="0" stop-color="#ffb701" />
            <stop offset="1" stop-color="#fcff01" />
        </linearGradient>
        <linearGradient id="linear-gradient-22" x1="93.94" y1="477.69" x2="163.56" y2="518.19"
            gradientTransform="translate(0 755) scale(1 -1)" gradientUnits="userSpaceOnUse">
            <stop offset="0" stop-color="#ff9502" />
            <stop offset="1" stop-color="#ffd601" />
        </linearGradient>
    </defs>
    <rect class="cls-66" width="742.9" height="742.9" />
    <path class="cls-27"
        d="M321.3,140.8c.3-.2,185.1,4.17,185.3,4.37-1.7,4.9-39.1,149.83-41.2,154.53l-11.6,26.5c-1.7,4.1-4.1,8-5.3,12.2-2-1.1-3.2-3.1-4.7-4.9-2.4-2.7-5.1-5.6-7.8-7.7-5.3-4.2-10.9-8.1-16.6-11.4l-4.7-2.4c-1.4-.8-2.9-1.9-4.5-2.5-1.2-.5-2.4-.6-3.6-1.1l-10.4-4.2-74.9-163.4Z" />
    <path class="cls-10"
        d="M359.4,292.1c-3,.5-6.4,.1-9.5,.2-6,.2-12.2,.5-18.3,1.3-1.2,.2-2.3,.3-3.4,.5-.2,.1-.5,.1-.7,.2h0c-1.2,.3-2.4,.6-3.6,1-.1,0-.2,.1-.2,.1h-.1l-20,4.2-.1-.1v-.1l-.1-.2c-1.9-.5-2.9-1.7-4.4-2.8-.8-.6-1.8-1-2.6-1.5-.8-.6-1.5-1.2-2.4-1.8-1.2-.8-2.6-1.3-3.8-2.1l-7.7-4.7c-.4-.4-35.1-19.8-76.3-42.8-.2-.1-.5-.3-.8-.4-.3-.2-.6-.4-1-.5-.6-.3-1.2-.7-1.8-1-.5-.3-.9-.5-1.4-.8-1.6-.9-3.3-1.8-4.9-2.7l-.6-.3h0l-.6-.3h-.1c-1.3-.8-2.7-1.5-4-2.2-1.3-.8-2.7-1.5-4-2.3-1.5-.8-3-1.7-4.5-2.5h0c-.7-.4-1.4-.8-2.2-1.2-.2-.1-.3-.2-.5-.3-.3-.2-.7-.4-1-.6-.6-.3-1.2-.7-1.8-1-2.3-1.3-4.5-2.5-6.8-3.8-2.2-1.2-4.4-2.5-6.6-3.7-12.8-7.2-25.4-14.2-36.9-20.6-.3-.2-.6-.3-.8-.5-.1-.1-.3-.2-.4-.2-1.8-1-3.7-2-5.4-3-1.1-.6-2.2-1.2-3.2-1.8-.6-.3-1.2-.7-1.8-1-1.7-1-3.4-1.9-5-2.8-.8-.5-1.6-.9-2.4-1.4,.3-3-.1-6.3-.3-9.1v-.4l2.7,.8,1.6,.5,2.2,.7,6.3,1.9,4.9,1.5,.8,.2,6.7,2.1,7.2,2.2,1.3,.4,1.1,.3,9,2.8,48.6-36.9c1.5,0,24.5-7.7,43.2-13.7,12.3-4,22.7-7.2,23.7-7.1l9.4,15.9,83.3,141.4h0Z" />
    <path class="cls-36"
        d="M238.7,134.8s77.4-.5,78.7,0c.5,.7,82,163.1,82.3,164l10.5,20.5c-8.3-3.2-17.3-4.8-26.1-6l-29.9-2.8-8.3-.4c-1.5,0-3.1-.2-4.4,.4l-102.8-175.7Z" />
    <path class="cls-77"
        d="M233.1,466.2l-12.7,14.3-.9,1-.2,.3-1.8,2-5,7.1-8.8,14.6-12.4,23.8-6.1,10.4-8.4,14.5-2.2,3.6h0l-1.7,2.7-3.8,7-8.9,17.2c-.5,1.1-4,8.9-4.6,9.2l-.4-.1c-.5,.9-1,1.7-1.5,2.5-.6,.8-1.3,1.5-1.7,2.4l-2.9,6.9-.6,1.2c-43.2-37.4-75.3-87.1-91.1-143.6v-166.3l1.8,2,43.4,47.3,39.6,43.1c1,2.6,4.1,26.3,5.3,28.9,1.5,3.3,3.4,6.4,5.1,9.7l5.9,10.8c.5,1,1.2,2.4,2.1,3.1l.2,.2h0l5.8,14.1,.1,.2v.1c.1,1.1,.6,2,1.1,3l1.9,4.1,4.1,9.8c.3,.8,.7,1.6,1.1,2.4,.2,.3,.3,.6,.5,1,.1,.1,.1,.3,.2,.4,.1,.3,.2,.5,.4,.8,.1,.2,.2,.3,.2,.5v-.1h0c1.1-3.4,2.8-6.4,4.5-9.6,1-1.9,2-3.8,3.1-5.6,1-1.6,2.3-3.1,3.5-4.5l.1-.2,1-1.3c.5-.2,1.1-1.1,1.5-1.5,1.4-1.4,2.7-2.8,4.2-4.1l9-7.2c1.8-1.4,3.3-2.7,5.3-3.9l.1-.1h0c1.2,2,2.9,3.4,4.5,5l6.1,6.4c3.5,3.7,7,7.6,10.7,11.3l.3,.3c.9,.9,1.8,1.8,2.7,2.6h.2l.1,.3Z" />
    <path class="cls-27"
        d="M463.6,284l.2,.1c4.5,.9,9.5,.5,14.1,.5l12.7,.1c2.1,0,76.6-92.4,78.8-92.2l16,149.8h-16l10.5,20.3c0,2-6,65.6-6.6,67.6l-100.6-90.9-2.7-2.3c-3.3-13.5-5.5-27.3-6.2-41.2l-.2-11.8Z" />
    <path class="cls-72"
        d="M498.2,192.5h71.2l.3,61.4-105.9,42c.7,13.9,3,27.7,6.2,41.2l2.7,2.3,96.8,83v26.1c-.2-.3-73-42.9-73.1-43.2-1.3-2.7-3.7-5.3-5.6-7.6l-10.3-12.4c-.8-.9-2.2-3.1-3.2-3.5-2.6-6-4.8-12.2-7.7-18-2.2-4.5-5-8.7-7.6-13-1.4-1.6-2.4-3.5-3.7-5.3-2.3-3-4.5-6-7.1-8.8-.9-.9-1.9-1.7-2.8-2.6,3.1,.3,5.7,1.3,8.5,2.6-.3-.8-1.9-2.2-2.5-2.9l-6.6-7.1v-.2c-.1-.6-.9-1.5-1.3-2-1.6-2-3.2-3.9-5-5.7,.9-2.7,2.7-5.3,4-7.8l8.8-16.9c1.7-3.2,42.6-98.5,43.9-101.6Z" />
    <path class="cls-2"
        d="M193.4,349l-13.3,11.2-5.6,6.1c-.9,1-1.9,2-2.6,3.2-.5,.8-.9,1.8-1.4,2.7l-2.4,4.7c-3.5,7.6-6.2,15.9-7.6,24.2-1.4,8.3-1.7,17.2-1.4,25.6,.2,5,.4,10.1,1.5,15.1v.2c-1-.7-1.6-2.2-2.3-3.3l-5.9-10.8c-1.7-3.2-3.6-6.3-5.1-9.7-1.1-2.6-1.9-5.3-3-7.9l-.1,6.6v.2c-.2-1.6-.1-3.4-.1-5l-.1-9.6-43.6-36.9-10.4-8.8-31.1-57.1-1.5-2.8,1.8,2c5.2-17.3,12-34,20.2-49.8,.1-.1,.1-.2,.2-.3-.6-.7-1.2-1.3-1.7-2l1.9,1.6,20.3,16.9h.1l14.2,11.9h0l7.1,5.9,18.9,15.7h0l7.5,6.3,.7,.6,.2,.1,2.6,2.1h0l6.6,5.5,35.4,35.6Z" />
    <path class="cls-77"
        d="M157.9,313.4l35.5,35.6-13.3,11.2c-.3-.2-.5-.4-.7-.7-.7-1.1-1.2-2.6-1.8-3.8l-4.4-9.1-12.8-27.1c-.7-1.6-1.9-3.1-2.5-4.7-.2-.6-.1-.9,0-1.4Z" />
    <path class="cls-8"
        d="M107.4,188.3c-21.6-12.1-36.4-20.4-36.7-20.7l36.4,11.2v.4c.2,2.8,.6,6.1,.3,9.1Z" />
    <path class="cls-77"
        d="M303.7,299.3c-.1,0-.2,0-.3,.1-14.2,3.4-28.1,7.7-41.7,12.9-.6,.2-1.2,.4-1.7,.7-1.2,.5-2.4,1-3.6,1.4-3.2,1.3-6.5,2.7-9.7,4.1l-9.8,4.7-3.3,1.6c-2.1,1.1-4.2,2.3-6.4,3.2l-1.9,.9-5.2,3.3-14.2,9h-.1l-12.3,7.8-35.5-35.6-5.2-5.1-3-3h0l-.9-.9-4.3-4.2v-15.3h0c0-.4,0-.7,.1-1v-.1c-.5-.7-6.8-5.3-15.6-11.6h0c-.5-.3-.9-.7-1.4-1-9.3-6.6-21.1-14.8-32.4-22.8-.1,0-.1-.1-.2-.1-.1-.1-.3-.2-.4-.3h0c-3.6-2.5-7.1-4.9-10.4-7.3,0,0,.1-.1,.1-.2,.3-.5,.5-.9,.8-1.4,1-1.9,2.1-3.7,3.2-5.5-.9-1.1-1.8-2.2-2.7-3.3,1.2,.8,2.4,1.4,3.5,1.9,1-1.7,2.1-3.4,3.1-5.1-1.3-2.8-2.7-5.4-3.5-6l-.1-.3c2.6-.1,5.5-.8,8.4-1-2.9,.2-5.8,.9-8.5,1-1.5-1.4-2.5-3.7-3.5-5.6l-7.8-16.1,1.9,1.7c3.2,2.7,7.6,5.4,11.7,6.3,4.2,1,8.8,.5,13,.1v-.1l.4-.2h.9l-.1-.4v-.4c-.4-.6-.6-1.2-.7-2-.1-1.3,0-2.6,.4-3.8,.9-2.5,1.4-5.1,2-7.7h8.7c.1,.1,.6,.4,1.6,1,.8,.5,1.9,1.1,3.2,1.8,1.5,.8,3.3,1.9,5.4,3.1,.1,.1,.3,.2,.4,.2,.3,.1,.5,.3,.8,.5,8.8,5,21.9,12.3,36.9,20.6h0c2.1,1.2,4.3,2.4,6.6,3.7s4.6,2.5,6.9,3.8c.6,.3,1.2,.7,1.8,1,.3,.2,.7,.4,1,.6,.2,.1,.3,.2,.5,.3,.7,.4,1.4,.8,2.2,1.2h0c1.5,.8,3,1.7,4.5,2.5,1.3,.7,2.7,1.5,4,2.2,1.3,.8,2.7,1.5,4,2.2h.1l.6,.3,.6,.3c1.6,.9,3.3,1.8,4.9,2.7,.5,.3,.9,.5,1.4,.8,.6,.3,1.2,.7,1.8,1,.3,.2,.7,.4,1,.5,.2,.1,.5,.3,.8,.4,39,21.7,75.9,42.2,76.5,42.5l7.7,4.7c1.2,.8,2.6,1.3,3.8,2.1,.8,.6,1.5,1.3,2.4,1.8,.8,.6,1.8,.9,2.6,1.5,1.5,1.1,2.6,2.3,4.4,2.8l-.2,.6Z" />
    <path class="cls-10"
        d="M227,328l-1.9,.9-5.2,3.3-14.2,9h-.1l-12.3,7.8-35.5-35.6-6.7-5.5-2.5-2.1-.2-.2-.7-.5-7.8-6.4h0l-18.6-15.4-6.5-5.4-15.8-13h-.1l-17.7-14.5h0l-1.7-1.3c.1-.1,.1-.2,.2-.3-.6-.7-1.2-1.3-1.7-2h0c-.9-1-1.7-1.9-2.6-2.8,1.5,.8,3,1.6,4.6,2.1,.3,.1,.7,.2,1,.3,.9-1.7,1.8-3.4,2.8-5.1l.3-.6s.1-.1,.1-.2c3.3,2.4,6.8,4.9,10.3,7.5h0c.1,.1,.3,.2,.4,.3,.1,0,.1,.1,.2,.1,11.2,8.1,22.9,16.6,32.2,23.2h0c.2,.1,.3,.2,.5,.4h0c9.6,6.9,16.3,11.7,16.7,11.7h0c1.4-.3,3.3-.2,4.9-.1h.8c1.7,.3,3.1,.9,4.5,1.7,0,0,.1,0,.1,.1l1.2,.6c.1,0,.1,.1,.2,.1l1.4,.7,2.2,1.1,1.2,.7h0l2.3,1.4,.4,.2h.1l.1,.1,1.3,.8,.5,.3,7.4,4.4,.2,.1h0l.2,.1,12.1,7.2h0l3.3,2,8.4,5,5.6,3.1h0l.2,.1,1.2,.7,.5,.3,9.7,5.8,3.5,1.9c1.2,.7,2.4,1.6,3.6,2.4,1.8,1.1,3.9,2,5.4,3.5Z" />
    <path class="cls-14"
        d="M227,328l-1.9,.9c-1.1-.3-2.4-1.5-3.5-2.1l-19.4-11.6h0l-.3-.1-.2-.1h0l-10.2-5.5v.4c-.8,.1-1.5,.1-2.3,.1l.1,.1c1.1,.9,2.2,1.6,3.3,2.5-.7-.2-1.4-.4-2.1-.7-1.7-.8-3.4-1.7-5-2.6-.1,0-.2-.1-.2-.1-1.1-.6-2.2-1.3-3.3-1.9-1.3-.8-2.6-1.6-4-2.4h0c-.1,0-.1-.1-.2-.1h0c-.4-.2-.8-.4-1.1-.7l-7.2-3.9h0l-.3-.2-2.1-1.1-5.4-3.2h0l-.5-.3-.7-.4-1.3-.8-1.3-.7-1-.5h0l-5.1-2.9h-.1l-4.1-2.3h0c-.1-.1-.2-.2-.4-.2-.9-.6-1.9-1-2.7-1.7l-.5-.5c-.3-.3-.8-.6-1.4-1.1h-.1c-2.9-2.2-8.6-6.3-15.7-11.5-.6-.4-1.2-.8-1.8-1.3h-.1c-9.5-6.9-21.2-15.4-32.2-23.4-3.1-2.2-6.1-4.4-9-6.5l.3-.6s.1-.1,.1-.2c.3-.5,.5-.9,.8-1.4,4.3,2.8,8.9,5.9,13.6,9,10.3,6.8,21,13.9,30.4,20.2,2.7,1.8,5.2,3.5,7.7,5.1,.1,0,.1,.1,.2,.1,.4,.3,.9,.6,1.3,.8,0,0,.1,.1,.2,.1,.1,.1,.3,.2,.4,.3h0c.1,.1,.2,.2,.4,.3h.1c.2,.1,.3,.2,.5,.3h0c4.6,3,8.5,5.6,11.4,7.5h0c1.6,1.1,2.9,1.9,3.8,2.5,0,0,.1,0,.1,.1,.5,.3,.9,.6,1.1,.7,.1,0,.1,.1,.2,.1l1.4,.7,2.2,1.1,1.2,.7h0l2.3,1.4,.4,.2h.1l.1,.1,1.3,.8,.5,.3,7.4,4.4,.2,.1h0l.2,.1,12.1,7.2h0l3.3,2,8.4,5,5.6,3.1h0l.2,.1,1.2,.7,.5,.3,9.7,5.8,3.5,1.9c1.2,.7,2.4,1.6,3.6,2.4,1.7,.7,3.8,1.6,5.3,3.1Z" />
    <path class="cls-15"
        d="M189.3,310l-3-2.7c.7,.3,1.5,.4,2.2,.7,1.1,.4,2.1,1,3.1,1.6v.4c-.8,0-1.5,.1-2.3,0Z" />
    <path class="cls-52"
        d="M84.2,478.3l-29-56,93,69.3,11.2,24.5,6.2,13.2,3.9,9.6c1.3,3.1,2.6,6,3.6,9.2,.7,2.3,1.1,5,1.6,7.4-1.5-1.3-2.4-2.6-3.6-4.2l-6.6-9.3-5.7-7.7c-2.2-3-11.2-16-14.1-16.5l-60.5-39.5Z" />
    <g>
        <path class="cls-48"
            d="M198.5,256.6c3.1-2.9,6.1-6.6,8.5-10.1,2,1.9,4.2,4.3,5.6,6.7l-.4,.3c-1.4,1.1-3.1,2.7-3.3,4.5-1.3,1-2.3,2.4-3.4,3.7-.6-.5-1.1-1.1-1.6-1.7-1.7-1.8-2.8-3.4-5.4-3.4Z" />
        <path class="cls-16"
            d="M165.2,291.5l-2.6,3-2.9,3c-2.7,3-6.1,6.2-9.9,7.7-.8,.2-1.9,.6-2.5,1.1-.4,.4,.1,.2-.7,.3l-.2-.4c3.9-2.9,7.1-6.7,10.5-10.2l7-6.7c-.3,1.6-.6,1.7-1.5,2.9,.9-.5,1.3-1,2.3-.8l.5,.1Z" />
        <path class="cls-20"
            d="M162.5,292.1c.9-.5,1.3-1,2.3-.8l.4,.1-2.6,3-2.9,3-.4-.3c0-1.2,.8-2.2,1.6-3,.6-.7,1.1-1.3,1.6-2Z" />
        <path class="cls-44"
            d="M162.6,294.5l8.3,3.8c-.9,1.1-8.6,9.9-8.7,10.3-.8,.9-1.8,1.8-2.9,2.5,0,0-.7,.4-.8,.4-.2,0-1.2-.7-1.4-.8-1.7-1-3.4-2.3-5.3-2.7l-2.6-.5c-.7-.3-1.1-.4-1.5-1.1l2.1-1.3c3.8-1.5,7.1-4.7,9.9-7.7l2.9-2.9Z" />
        <path class="cls-45"
            d="M189.3,278.6l-12,12.7c-2.1,2.2-3.9,4.8-6.3,6.7l-.2,.1-8.3-3.8,2.6-3-.4-.1c-1-.2-1.5,.3-2.3,.8,.9-1.2,1.2-1.4,1.5-2.9l7.1-7.4,2.1,1.5,7.8-8.1,8.4,3.5Z" />
        <path class="cls-11"
            d="M173.2,283.2l-5.6,5.9c-.6,.6-1.6,2-2.3,2.4l-.4-.1c-1-.2-1.5,.3-2.3,.8,.9-1.2,1.2-1.4,1.5-2.9l7.1-7.4,2,1.3Z" />
        <path class="cls-20"
            d="M207.9,235.5c.3,.9,1,2.1,1,3l-.2,.5c-.4,1.3-3.3,4.7-2.8,5.8,.3,.6,.7,1.2,1.1,1.7-2.5,3.5-5.4,7.2-8.5,10.1,2.5,0,3.7,1.6,5.4,3.4,.5,.6,1,1.2,1.6,1.7l-16.2,16.9-8.4-3.5-7.8,8.1-2.1-1.5c3.2-3.1,5.5-6.9,7.9-10.6,.1-1.8,.7-3.5,.6-5.4l-.1-1.9c.5-.9,1.1-1.7,1.8-2.6l3.7,.1,1-1.9c1.9-3.4,4.1-6.1,6.5-9.2,1-1.3,2.3-3.7,3.9-4.2l.2-.1c1.6-.5,2.6-1.5,3.8-2.5,3.1-2.3,5.4-4.7,7.6-7.9Z" />
        <path class="cls-76"
            d="M207.9,235.5c.3,.9,1,2.1,1,3-1.7,1.6-2.9,4-4.5,5.8l-8.3,8.7c-3.8,4-7.6,8.9-12.1,12.1l.8-3.7,1-1.9c1.9-3.4,4.1-6.1,6.5-9.2,1-1.3,2.3-3.7,3.9-4.2l.2-.1c1.6-.5,2.6-1.5,3.8-2.5,3.2-2.4,5.5-4.8,7.7-8Z" />
        <path class="cls-30"
            d="M181,275.1l17.6-18.5c2.5,0,3.7,1.6,5.4,3.4,.5,.6,1,1.2,1.6,1.7l-16.2,17-8.4-3.6Z" />
        <path class="cls-30"
            d="M205.5,261.6c1.1-1.2,2.1-2.6,3.4-3.7,3,3.6,5.4,7.6,8.9,10.7l.3-1c1.1,.3,2.5,.5,3.4,1.2l2.2,.2,.7,.3c3.2,2,5.3,6.4,8,9.1-.4,1.3-.8,2.1-1.5,3.2-.1,.2-.2,.5-.2,.7-1.2,.1-3.3,2.8-4.4,3.7l-14.6,16.2c-1.5,1.8-3.2,3.4-4.7,5.2-2,2.5-3.6,5.3-5.5,7.8-1.9,1.5-3.7,2.9-5.1,4.9-1.6,2.2-4.3,3.7-6.5,5.4l-1.8,1.5c-1.2,.6-2.6,1.9-3.7,2.7-2.6-1.7-4.5-3.8-6.8-5.9-.7-.6-1.7-1.1-2.2-2l-1.4-1.5-.6,.1-.8-.8-2.1-1.5c-.3,.6-.1,.4-.7,.7-.4-.2-1.3-.5-1.5-.8-.8-.8-1.4-2.4-2.1-3.3l-.2-.2-2.2-3.9-1.7-2.5c0-.4,7.8-9.1,8.7-10.3l.2-.1c2.3-2,4.2-4.5,6.2-6.8l12-12.7,16.3-16.6Z" />
        <path class="cls-20"
            d="M218.2,267.7c1.1,.3,2.5,.5,3.4,1.2l2.2,.2,.7,.3c-2.6,3.7-5.7,7.2-9.1,10.3-2.4,2.2-5.2,4.3-7.3,6.8-.7-.4-.5-.5-.8-1.2l.4-.8c-.2-1.1-.4-2.2-.8-3.3l-.7-.2c.3-.1,.9-.9,1.2-1.1,1.7-1.7,3.3-3.6,4.9-5.4,1.3-2.3,4.7-3.6,5.5-5.8l.4-1Z" />
        <path class="cls-68"
            d="M218.2,267.7c1.1,.3,2.5,.5,3.4,1.2-1.6,1.3-2.4,3.5-4.2,4.5-1.2,.7-2.3,2.5-3.2,3.5l-6.4,7.6c-.2-1.1-.4-2.2-.8-3.3l-.7-.2c.3-.1,.9-.9,1.2-1.1,1.7-1.7,3.3-3.6,4.9-5.4,1.3-2.3,4.7-3.6,5.5-5.8l.3-1Z" />
        <path class="cls-44"
            d="M185.3,313.6c3.4,.9,6.4,3,9.1,5.2,.1,1-.1,1.1-.7,1.8l-3.8,5.1-1.8,1.5c-1.2,.6-2.6,1.9-3.7,2.7-2.6-1.7-4.5-3.8-6.8-5.9-.7-.6-1.7-1.1-2.2-2,3.5-2.6,6.3-5.8,9.9-8.4Z" />
        <path class="cls-75"
            d="M206.3,281l.7,.2c.4,1.1,.6,2.1,.8,3.3l-.4,.8c-2,.5-4.5,4.3-5.9,5.9l-10.7,11.9c-1.8,1.9-3.4,3.9-5.3,5.7v.3c-.1,1.1-.2,2.1-.5,3.2l.4,1.3c-3.6,2.6-6.4,5.7-9.8,8.5l-1.4-1.5-.6,.1-.8-.8v-.7l2.5-3.8,5.9-7.5,25.1-26.9Z" />
        <path class="cls-40"
            d="M174.1,320.6l11.4-11.8v.3c-.1,1.1-.2,2.1-.5,3.2l.4,1.3c-3.6,2.6-6.4,5.7-9.8,8.5l-1.5-1.5Z" />
        <path class="cls-38"
            d="M170.9,298.2l.2-.1c.3,1.4,3.6,3.4,4.7,4.5l5,5.3,.4,.1-5.9,7.5-2.5,3.8v.7l-2.1-1.5c-.3,.6-.1,.4-.7,.7-.4-.2-1.3-.5-1.5-.8-.8-.8-1.4-2.4-2.1-3.3l-.2-.2-2.2-3.9-1.7-2.5c-.1-.4,7.7-9.1,8.6-10.3Z" />
        <path class="cls-26"
            d="M163.9,311l-1.1-2.1,.2-.6,1.1-.5c2.3,1,4.4,3.2,6.4,4.8,1.5,1.1,3,2.2,4.7,2.9l-2.5,3.8v.7l-2.1-1.5c-.3,.6-.1,.4-.7,.7-.4-.2-1.3-.5-1.5-.8-.8-.8-1.4-2.4-2.1-3.3l-.2-.2-2.2-3.9Z" />
        <path class="cls-39"
            d="M170.6,312.5c1.5,1.1,3,2.2,4.7,2.9l-2.5,3.8c-1.4-1.8-2.4-4.3-2.2-6.7Z" />
        <path class="cls-78"
            d="M205.5,261.6c1.1-1.2,2.1-2.6,3.4-3.7,3,3.6,5.4,7.6,8.9,10.7-.8,2.2-4.2,3.6-5.5,5.8-1.7,1.8-3.2,3.7-4.9,5.4-.3,.3-.9,1-1.2,1.1l-25,27-.4-.1-5-5.3c-1.1-1.1-4.4-3.1-4.7-4.5,2.3-2,4.2-4.5,6.2-6.8l12-12.7,16.2-16.9Z" />
        <path class="cls-12"
            d="M219.1,265.2c.5,.2,1.5,.4,2,.7,1,.7,1.7,2.4,2.8,3.3l-2.2-.2c-.9-.7-2.3-.9-3.4-1.2l.8-2.6Z" />
        <path class="cls-39"
            d="M226.3,286.2c1.1-.9,3.2-3.6,4.4-3.7l30.4,31.7c1.8,1.3,75,71.6,78,74.4,1.8,1.6,3.6,3.5,5.6,4.9,2.4,2.8,5,5,7.8,7.3l10.3,8.9c2.8,2.5,5.4,5.4,8.5,7.4l.4-.3-.4-1.2c3.2,5,8.3,8.7,12.6,12.7l20.5,18.6,32.5,29.3,13.7,13,9.4,8,13.5,12c1.1,.9,2.4,1.7,3.5,2.6,1.5,1.3,2.9,2.9,4.5,4.1,1.2,.9,2.5,1.7,3.6,2.7l31.8,28.6,11,9.4c1.8,1.6,4.5,3.1,5.6,5.3l1,3.7-3.5,1.8-19.5,10.3-10.6,5.6-10.2,5.4s-38.3-32-38.4-33.4l-4.1-3.6-78-68.4-12.6-11.2-18.1-16.4c-3.3-2.9-7-5-10.1-8.2-1.4-1.3-3-2.4-4.5-3.6l-4.4-4.1-4.4-3.4c-1.8-1.6-3.1-3-5.2-4.3-2.8-1.7-5-3.4-7.1-5.8l-29.1-26.1c-.5-.8-2.4-1.9-3.2-2.6l-29.7-25.9-11.7-10c-1.2-1.5-3-2.9-4.4-4.2l-16.3-13.4-11.2-9c-3.4-2.8-6.3-5.7-10.2-7.9l1.8-1.5c2.1-1.7,4.8-3.2,6.5-5.4,1.4-2,3.2-3.4,5.1-4.9,1.9-2.5,3.5-5.3,5.5-7.8,1.5-1.8,3.2-3.5,4.7-5.2l14.7-16.2Z" />
        <path class="cls-44"
            d="M274.8,400.3c1.1-.2,1.8-.2,2.9,0,1.7,.3,3.7-.4,5.4-.6l5.4-.3c2.8-.2,5.3-.6,8.2-.3,2.4,1.7,5.1,3.7,7.2,5.8,2.1,2.1,3.9,4.4,6.2,6.4,4.9,4.2,10.4,7.4,15.3,11.5l15.6,14.3,6.7,6.9c-4,.6-7.6,1.8-11.4,2.9-.9,.8-2.3,1.8-2.8,2.9-1-.6-1.6-1.1-2.2-2.1l-.1-.1-1.9-.1c-1.4-1.3-3-2.4-4.5-3.6l-4.4-4.1-4.4-3.4c-1.8-1.6-3.1-3-5.2-4.3-2.8-1.7-5-3.4-7.1-5.8l-28.9-26Z" />
        <path class="cls-56"
            d="M331.4,447.9c1.3,0,2.5,0,3.8-.5l1.1-.4c-.9,.8-2.3,1.8-2.8,2.9-.9-.6-1.5-1-2.1-2Z" />
        <path class="cls-49"
            d="M201.6,315.5l.3-.1c1.2,2.5,4.6,4.8,6.6,6.6l22.1,19.7,8.7,7.8c1.4,1.3,2.6,2.7,4,3.9l15,12.9,25.1,22.7,7.5,6c1.8,1.3,4.3,2.6,5.8,4.2-2.9-.3-5.4,.1-8.2,.3l-5.4,.3c-1.7,.2-3.7,.9-5.4,.6-1.1-.2-1.8-.2-2.9,0-.5-.8-2.4-1.9-3.2-2.6l-29.7-25.9-11.7-10c-1.2-1.5-3-2.9-4.4-4.2l-16.3-13.4-11.2-9c-3.4-2.8-6.3-5.7-10.2-7.9l1.8-1.5c2.1-1.7,4.8-3.2,6.5-5.4,1.5-2.1,3.3-3.5,5.2-5Z" />
        <path class="cls-50"
            d="M329.4,447.7l1.9,.1,.1,.1c.6,1,1.2,1.5,2.2,2.1l.3,.2c2.1,1.2,4.5,1.5,6.9,2.2l9.5,2.9c3.9,1.2,7.6,2.1,11.1,4.3,4.2,2.7,7.9,5.9,11.7,9l7,5.8c2.2,2,4.1,4.2,6.2,6.2l12,11.1,9,7.9,5.2,4.9c1.5,1.3,3.2,2.4,4.7,3.8l13.5,12.4c1.3,1.3,2.3,2.8,3.6,4,1.3,1.2,2.8,2.2,4,3.4l9.5,9.2,5.5,4.4,12.4,10.5,10.2,9.3,13.6,11.6,11.7,10.4-10.2,5.4s-38.3-32-38.4-33.4l-4.1-3.6-78-68.4-12.6-11.2-18.1-16.4c-3.6-2.9-7.3-5-10.4-8.2Z" />
        <path class="cls-84"
            d="M226.3,286.2c1.1-.9,3.2-3.6,4.4-3.7l30.4,31.7c1.8,1.3,81.6,77.8,83.6,79.2,2.4,2.8,5,5,7.8,7.3l10.3,8.9c2.8,2.5,16.7,14.6,21.1,18.6l20.5,18.6,32.5,29.3,13.7,13,9.4,8,13.5,12c1.1,.9,2.4,1.7,3.5,2.6,1.5,1.3,2.9,2.9,4.5,4.1,1.2,.9,2.5,1.7,3.6,2.7l31.8,28.6,11,9.4c1.8,1.6,4.5,3.1,5.6,5.3l1,3.7-3.5,1.8-19.5,10.3c-3-3.5-5.6-7.5-8.8-10.7-4.7-4.8-10.3-8.5-15.3-12.9l-13.5-13.1-9.9-8.6-13.7-11.6c-2-1.6-4.3-3-6.6-4-3-1.3-5.2-1.4-7.5-4l-7.9-9.7c-2.8-3.3-6-6.2-9-9.3-1-1-2.8-3.5-4.1-3.8-.3,.5-.5,.8-.9,1.2l-174.5-165.2c-1.3-1.4-2.7-2.4-4.2-3.7l-7.2-6.4c-4-3.5-7.7-7.7-12.1-10.6-4.6,3.9-9,7.4-14.4,10.2l-.3,.1c1.9-2.5,3.5-5.3,5.5-7.8,1.5-1.8,3.2-3.5,4.7-5.2l14.5-16.3Z" />
        <path class="cls-54"
            d="M226.3,286.2c1.1-.9,3.2-3.6,4.4-3.7l132.1,127.2c2.8,2.5,41.5,37.3,41.5,37.3l32.5,29.3,13.7,13,9.4,8,13.5,12c1.1,.9,2.4,1.7,3.5,2.6,1.5,1.3,2.9,2.9,4.5,4.1,1.2,.9,2.5,1.7,3.6,2.7l31.8,28.6,11,9.4c1.8,1.6,4.5,3.1,5.6,5.3l1,3.7-3.5,1.8-270-248.9c-2.9-2.1-5.4-5.1-8-7.7l-16.4-15.9-6.6-5.9c-1.1-1-2.4-1.7-3.6-2.9Z" />
    </g>
    <path class="cls-36"
        d="M233.1,466.1h0l-12.1,13.6-3.6,4.1c-1.4-1.9-3.4-3.6-5.2-5.3l-6.4-6.1c-4.1-3.6-8.8-6.9-13.2-10.1-1.7-1.2-3.4-2.6-5.2-3.9-.1,0-.1-.1-.2-.1l1.2-1.3c.5-.2,1.1-1.1,1.5-1.5,1.4-1.4,2.7-2.8,4.2-4.1l9-7.2c1.8-1.4,3.3-2.7,5.2-3.9,.1,0,.1-.1,.2-.1,1.2,2,2.9,3.4,4.5,5.1l6.1,6.4c4.5,4.7,8.9,9.9,13.8,14.2h0l.2,.2Z" />
    <path class="cls-71"
        d="M402.2,296.9l7.9,2.7c.9,.3,1.8,.3,2.7,.7,1.2,.4,2.3,1.1,3.4,1.6l3.6,1.5c4.4,2.1,8.6,4.6,12.6,7.3,2,1.4,4.1,3.3,5.9,4.9,1.2,1.1,2.1,2.3,3.6,3.1,1.8,1.9,3.4,3.7,5,5.7,.4,.5,1.3,1.4,1.3,2v.2c-3.1-2.9-6.2-5.9-9.6-8.5-3.1-2.4-6.5-4.4-10-6.4-4.5-2.6-9.1-5-13.9-7-3.7-1.5-7.5-2.5-11.3-3.6-5.8-1.6-11.5-2.9-17.5-3.7-7.5-1-15.1-1.3-22.6-1.3-9,0-17.7,.7-26.6,2-3.8,.6-7.7,1.2-11.5,2.1l-5.6,1.7c-3.1,.9-6.2,1.6-9.2,2.9-3.9,1.7-6.7,5.9-9.1,9.2-1.4,2-3,3.9-3.9,6.2l-.2,.5,.2,.1c.7,1.1,.2,3.7,.3,5l.1,26v6.1c0,1.6-.1,3.3,.3,4.9,.2,2,.1,4.3,.6,6.3l.1,.5-.4,.6c.5,1.1,.1,2.4,.5,3.6-1.6,3.7-3.5,7-5.4,10.5l-4.9,9.6c-.5,.9-1.5,2.3-1.7,3.3l15.4,1.2h20.9l23.2-1.5c5-.5,10.2-.9,15-2.4,4-1.2,7.9-2.8,11.6-4.9,1.1-.6,2-1.6,3.1-2.1-1.8,2.8-3.6,6.1-5.8,8.4-.6,.9-1,2-1.6,2.9-1.3,1.9-2.8,3.5-4.2,5.2-6.2,7.7-13,14.9-20.2,21.7-2.5,2.3-5.1,4.8-7.9,6.8l-5.4,2.9c-3,1.5-6.3,3.3-9.6,3.9-2,.4-4.2,.2-6.1,.2,3.2-8.8,4.7-18.8,1-27.6l-12.5,.4-.2,3.9-.2,.1c-1.8,.8-3.3,2.2-4.9,3.4-1.2,.9-2.6,1.7-3.7,2.7-1.6,1.4-3.4,2.5-5.1,3.7l-6.3,4.3c-4.5,1.2-8.5,3.7-12.5,6.1-1.3,.8-2.8,1.7-4.2,2.3-3.3,1.8-6.5,4.1-9.6,6.4-6.7,4.9-12.9,10.1-18.8,15.9-1.7,1.7-3.5,3.3-5.1,5.1-5-4.4-9.4-9.6-14-14.4l-6.1-6.4c-1.6-1.7-3.3-3.1-4.5-5.1-1.9,1.3-3.6,2.6-5.4,4l-9,7.2c-1.5,1.3-2.8,2.7-4.2,4.1-.4,.4-1,1.3-1.5,1.5l-1.1,1.5c-1.2,1.5-2.5,2.9-3.5,4.5-1.2,1.8-2.1,3.7-3.1,5.6-1.8,3.2-3.5,6.2-4.5,9.7-.7-1.8-1.6-3.4-2.4-5.1l-4.1-9.8-1.9-4.1c-.5-1-1-2-1.1-3.1l-5.9-14.3c-1-5-1.3-10.1-1.5-15.3-.3-8.4,0-17.3,1.4-25.6,1.4-8.3,4-16.6,7.6-24.2l2.4-4.7c.5-.9,.8-1.9,1.4-2.7,.7-1.1,1.7-2.2,2.6-3.2l5.6-6.1,13.3-11.2,31.7-19.9,1.9-.9c2.2-.9,4.3-2.2,6.4-3.2l13.1-6.3c18.5-8.1,37.5-14.5,57.1-19.2l20.1-4.2c1.6-.4,3.1-.9,4.6-1.2,7.1-1.3,14.5-1.6,21.7-1.9,3.1-.1,6.5,.3,9.5-.2l23.4,1.5,19,3.4Z" />
    <path class="cls-36"
        d="M544.4,513.8c-2.1,3.2-4.2,6.4-6.5,9.5-5-2.8-10.3-5.2-15.6-7.2-5.4-2.1-10.9-3.7-16.6-5-2.6-.6-5.2-1.1-7.9-1.5,0-6-.1-11.6-.1-16.2,.1,.1,.3,.3,.5,.4,2.4,2,4.9,3.9,7.5,5.5,6.6,4.2,13.9,7.3,21.3,10.2,4.6,1.8,9.4,4,14.4,4.2,.8,0,1.7,.1,2.4-.3l.6,.4Z" />
    <path class="cls-35"
        d="M303.3,412.1l-.2,3.9-.2,.1c-1.8,.8-3.3,2.2-4.9,3.4-1.2,.9-2.6,1.7-3.7,2.7-1.5-.4-2.6-1.2-4-1.8l-4.3-2-.2-.1-8.2-3.4c-.2-.1-.5-.2-.7-.2-.2-.1-.4-.1-.6-.2-.7-.2-1.5-.4-2.3-.8h.1l29.2-1.6Z" />
    <path class="cls-4"
        d="M303.7,299.4l20.1-4.2c-1,.9-2.3,1.4-3.4,2.1-1,.6-1.8,1.5-2.8,2.1-1.2,.6-2.6,.8-3.8,1.3-5.4,2.2-10.8,3.8-16.4,5.4l-17.4,5.3-20.3,7.6-7.5,3.4c-6.5,2.9-12.9,5.8-19.1,9.2l-11.9,7c-7.6,4.6-15.1,9.2-22,14.7l-12,8.8-1.8,12.5c-1,8.1-1.3,16.3,.1,24.4,.5,2.6,1.2,5.2,2,7.7v.2c-2,3.3-3.6,7.2-4.8,10.9-.4,1.1-.5,2.2-.9,3.3,.1,.1,.4,.5,.4,.7,0,.4-.3,1.3-.4,1.8l-.9,4.6c-1.4,7.4-2.2,15-1.8,22.5,.1,1.2,0,2.7,.4,3.9l-.3,.5c-.8-.1-1.5-.4-2.3-.5-3.7-.5-6.2,.5-9.6,1.8h-.6l-5.9-14.3c-1-5-1.3-10.1-1.5-15.3-.3-8.4,0-17.3,1.4-25.6,1.4-8.3,4-16.6,7.6-24.2l2.4-4.7c.5-.9,.8-1.9,1.4-2.7,.7-1.1,1.7-2.2,2.6-3.2l5.6-6.1,13.3-11.2,31.7-19.9,1.9-.9c2.2-.9,4.3-2.2,6.4-3.2l13.1-6.3c18.3-8.3,37.4-14.6,57-19.4Z" />
    <path class="cls-63"
        d="M187.1,362.1l-1.8,12.5c-1,8.1-1.3,16.3,.1,24.4,.5,2.6,1.2,5.2,2,7.7v.2c-2,3.3-3.6,7.2-4.8,10.9-.4,1.1-.5,2.2-.9,3.3l-4.5-7.8c-1.4-2.3-2.5-4.2-4.9-5.7-2-1.3-4.3-2.1-6.8-1.4-1,.3-1.5,1.3-2,2.2l.9-4.8c.7-4.9,2-9.8,3.6-14.6,1.6-4.8,3.3-9.5,6.1-13.8,3.2-5.2,8.2-9.5,13-13.1Z" />
    <path class="cls-34"
        d="M182.1,421.6c0,.4-.3,1.3-.4,1.8l-.9,4.6c-1.4,7.4-2.2,15-1.8,22.5,.1,1.2,0,2.7,.4,3.9v.1l-.3,.4c-.8-.1-1.5-.4-2.3-.5-3.7-.5-6.2,.5-9.6,1.8,0,0,0-.1-.1-.1-1-2.2-1.5-4.5-2-6.9-2.6-11-3-22.8-2.3-34,.1-2.3,0-4.9,.7-7,0,0,0-.1,.1-.1,.5-.9,.9-1.8,1.9-2.1,2.4-.7,4.7,.2,6.8,1.4,2.4,1.5,3.5,3.4,4.9,5.7l4.3,7.5,.1,.2v.1h0c.3,.2,.5,.5,.5,.7Z" />
    <path class="cls-62"
        d="M297.7,362.6l-4.9,1.3-17.4,6c-9.8,3.9-19.2,9.2-28.3,14.5-8.1,4.8-16.1,9.7-23.7,15.2l-7.2,5.1c-1.2,1-2.5,1.9-3.6,2.9l-.4,.4-.1,.1c-1.1,1.3-2.5,2.4-3.8,3.6-.1,0-.1,.1-.2,.1l-6.8,6.5-.1,.1c-2.3,2.2-4.7,4.8-6.1,7.7v.1l-.5,.9c-.1-.1-.1-.2-.2-.3-.3-.5-.3-1.2-.5-1.7l-1.3-4.2c-.8-2.3-2-4.5-2.9-6.7-1-2.4-1.7-4.8-2.3-7.3v-.2c-.8-2.5-1.5-5.1-2-7.7-1.4-8-1.1-16.3-.1-24.4l1.8-12.5,12-8.8c1.2,.1,2.4-.2,3.6-.3l16.1-.9,27.1-2.7,28.4-3.8c1.4-.2,2.7-.3,4.1-.5l7.7-1.5,.2,.2c-.1,.4-.3,.7-.3,1.1,.2-.2,.2-.1,.3-.3l10.7-24c.7,1.1,.2,3.7,.3,5l.1,26v6.1c0,1.6-.1,3.3,.3,4.9Z" />
    <path class="cls-59"
        d="M187.3,406.7c4.4-7.3,10.4-13.7,15.9-20.1l8.8,21.6c-1.2,1.4-2.7,2.5-4.1,3.8l-6.8,6.5c-2.3,2.2-4.7,4.8-6.1,7.7v.1l-.5,.9c-.4-.6-.5-1.4-.7-2l-1.3-4.2c-.8-2.3-2-4.5-2.9-6.7-1-2.4-1.7-4.8-2.3-7.3v-.3Z" />
    <path class="cls-23"
        d="M375.7,387.3c-1.8,2.8-3.6,6.1-5.8,8.4-.6,.9-1,2-1.6,2.9-1.3,1.9-2.8,3.5-4.2,5.2-6.2,7.7-13,14.9-20.2,21.7-2.5,2.3-5.1,4.8-7.9,6.8l-5.2,2.8c-1.1,.6-2.3,1.2-3.5,1.7-2,.9-4.1,1.8-6.1,2.2-1.9,.3-4.1,.2-6.1,.2v.1h-.2c3.2-8.8,4.7-18.8,1-27.6h-.1l-12.4,.4h-.1l-29.2,1.6c-2.1-.3-4,.4-6.1,.8-3.9,.8-7.8,1.6-11.6,2.7l-8.2,2.8c-4.1,1.4-8.2,2.9-12.1,4.8-1.8,.7-3.5,1.7-5.2,2.5l-6.5,3.2-5.2,3c-3.6,2-7.6,3.9-10.7,6.6,1.2,2,2.9,3.4,4.5,5.1l6.1,6.4c4.5,4.8,8.9,9.9,13.8,14.2v.1c-4.9-4.4-9.3-9.5-13.8-14.2l-6.1-6.4c-1.6-1.7-3.3-3.1-4.5-5.1-.1,0-.1,.1-.2,.1,0-.1-.1-.1-.1-.2-1.9,1.3-3.6,2.6-5.4,4l-9,7.2c-1.5,1.3-2.8,2.7-4.2,4.1-.4,.4-1,1.3-1.5,1.5l-1.1,1.5c-1.2,1.5-2.5,2.9-3.5,4.5-1.2,1.8-2.1,3.7-3.1,5.6-1.8,3.1-3.4,6-4.4,9.4-.7-1.6-1.5-3.1-2.2-4.6l-4.1-9.8-1.9-4.1c-.5-1-1-2-1.1-3.1l-.1-.2h.5s0,.1,.1,.1c3.4-1.3,5.9-2.3,9.6-1.8,.8,.1,1.5,.4,2.3,.5l.3-.4,.1-.1c.9,2,1.9,4.5,2.2,6.7l.3,2.9q.1,.3,.4,.4l.1-.2c-.3-.4-.2-.9-.2-1.4l.2-.2c0-.5,.1-.9,.3-1.4s.2-1,.4-1.4c.2-.3,.1-.2,.2-.5,0-.4,0-.1,.1-.5,.6-1.6,.8-3.3,1.2-5,.7-2.8,1.6-5.7,2.8-8.3,.5-1.1,.9-2.2,1.6-3.2l.1-.1c.3-.6,.6-1.1,.7-1.8-.2-.9,.2-2.1,.4-3.1,.5-2,1.1-4.1,2-5.9,.7-1.4,1.5-2.7,2.1-4.2l.1-.2c-.1-.1-.2-.2-.2-.4,0,.1,.1,.1,.1,.2h0c0,.1,.1,.2,.2,.3l.5-.9v-.1c1.4-2.9,3.8-5.5,6.1-7.7-2.2,2.3-4.6,4.7-6,7.6v.1l-.5,.9-.1,.2c-.6,1.5-1.4,2.8-2.1,4.2-.9,1.9-1.5,3.9-2,5.9-.3,.9-.6,2.1-.4,3.1,.6-1.4,1.5-2.6,2.4-3.8,1.8-2.5,3.6-4.5,5.7-6.7,13.7-13.7,30-24.7,46.7-34.5,7.2-4.2,14.5-8.4,22.1-11.9l19.6-8.8,6.3-2.5c1.8-.7,3.5-1.2,5.1-2.2,.5,1.1,.1,2.4,.5,3.6-1.6,3.7-3.5,7-5.4,10.5l-4.9,9.6c-.5,.9-1.5,2.3-1.7,3.3l15.4,1.2h20.9l23.2-1.5c5-.5,10.2-.9,15-2.4,3.5-1,6.8-2.4,10.1-4.1h.1c.5-.3,1.1-.6,1.6-.9,1-.5,1.8-1.4,2.7-1.9q.1-.1,.2-.1Z" />
    <path class="cls-60"
        d="M173.8,473.3c.6,1.5,1.5,3,2.2,4.6,0,.1-.1,.2-.1,.3-.7-1.8-1.6-3.4-2.4-5.1l-4.1-9.8-1.9-4.1c-.5-1-1-2-1.1-3.1h.2l.1,.2c.1,1.1,.6,2.1,1.1,3.1l1.9,4.1,4.1,9.8Z" />
    <path class="cls-80"
        d="M189.9,440.4c-.1,.7-.4,1.2-.7,1.8l-.1,.1c-.7,1-1.1,2.1-1.6,3.2-1.2,2.6-2.1,5.5-2.8,8.3-.4,1.7-.6,3.4-1.2,5-.1,.4-.1,.1-.1,.5-.1,.3,0,.2-.2,.5-.2,.4-.2,.9-.4,1.4s-.3,.9-.3,1.4l-.2,.2c0,.5-.1,1,.2,1.4l-.1,.2q-.3-.1-.4-.4l-.3-2.9c-.3-2.2-1.3-4.7-2.2-6.7l-.1,.1-.3,.4c-.8-.1-1.5-.4-2.3-.5-3.7-.5-6.2,.5-9.6,1.8,0,0,0-.1-.1-.1,3.2-1.3,5.8-2.1,9.5-1.8,.8,.1,1.5,.4,2.3,.5l.3-.5c-.4-1.2-.4-2.6-.4-3.9-.4-7.5,.4-15.1,1.8-22.5l.9-4.6c.1-.5,.5-1.4,.4-1.8h0c0-.1-.2-.3-.3-.5,0-.1-.1-.1-.1-.2h0v-.1c.4-1,.5-2.1,.8-3.2,1.2-3.7,2.8-7.6,4.8-10.9,0,.1,0,.2,.1,.2q0,.1,.1,.2c.6,2.3,1.2,4.6,2.2,6.9,.4,.9,.8,1.8,1.2,2.7l.3,.6c.5,1.1,1,2.2,1.4,3.4l1.3,4.2c.2,.5,.3,1.3,.6,1.8,.1,.1,.1,.3,.2,.4l-.1,.2c-.6,1.5-1.4,2.8-2.1,4.2-.9,1.8-1.5,3.9-2,5.9-.2,1-.6,2.2-.4,3.1Z" />
    <path class="cls-64"
        d="M232.9,465.9s-.1,0,0,0c-.1,0-.1,.1,0,0-5.1-4.3-9.5-9.5-14.1-14.3l-6.1-6.4c-1.5-1.6-3.1-3-4.3-4.8l-.1-.1c.1,0,.1-.1,.2-.1,1.2,2,2.9,3.4,4.5,5.1l6.1,6.4c4.5,4.7,8.9,9.8,13.8,14.2Z" />
    <path class="cls-32"
        d="M244.9,395.4c-16.7,9.8-33,20.8-46.7,34.5-2.1,2.2-3.9,4.2-5.7,6.7-.9,1.2-1.8,2.4-2.4,3.8-.2-1,.1-2.2,.4-3.1,.5-2,1.1-4,2-5.9,.7-1.4,1.5-2.7,2.1-4.2l.1-.2,.5-.9v-.1c1.4-2.9,3.8-5.3,6-7.6-2.3,2.2-4.7,4.8-6.1,7.7v.1l-.5,.9c-.1-.1-.1-.2-.2-.3l.5-.9v-.1c1.4-2.9,3.9-5.4,6.1-7.7l6.8-6.5c1.4-1.2,2.9-2.3,4.1-3.8,1.2-1.3,2.7-2.4,4.1-3.4l7.2-5.1c7.6-5.5,15.6-10.4,23.7-15.2,9.1-5.3,18.5-10.6,28.3-14.5l17.4-6,5.1-1c.2,2,.1,4.3,.6,6.3l.1,.5-.4,.6c-1.6,1-3.3,1.5-5.1,2.2l-6.3,2.5-19.6,8.8c-7.6,3.5-14.9,7.7-22.1,11.9Z" />
    <path class="cls-28"
        d="M321.2,439c2.1-.4,4.1-1.2,6.1-2.2-2.1,1-4.2,1.9-6.3,2.3-1.9,.4-4,.2-5.9,.2v-.1c2,0,4.2,.1,6.1-.2Z" />
    <path class="cls-83"
        d="M372.6,389.4c1-.6,1.9-1.5,2.9-2-.9,.5-1.7,1.4-2.7,1.9-.5,.3-1.1,.6-1.6,.9,.5-.3,.9-.6,1.4-.8Z" />
    <path class="cls-85" d="M375.7,387.3h0c-.1,0-.1,.1-.2,.1q.1-.1,.2-.1Z" />
    <path class="cls-51"
        d="M194.5,427l-.1,.2c-.6,1.5-1.4,2.8-2.1,4.2-.9,1.8-1.5,3.9-2,5.9-.2,1-.6,2.2-.4,3.1-.1,.7-.4,1.2-.7,1.8l-.1,.1c-.7,1-1.1,2.1-1.6,3.2-1.2,2.6-2.1,5.5-2.8,8.3-.4,1.7-.6,3.4-1.2,5-.1,.4-.1,.1-.1,.5-.1,.3,0,.2-.2,.5-.2,.4-.2,.9-.4,1.4s-.3,.9-.3,1.4l-.2,.2c0,.5-.1,1,.2,1.4l-.1,.2q-.3-.1-.4-.4l-.3-2.9c-.3-2.2-1.3-4.7-2.2-6.7l-.1,.1h-.1c-.4-1.2-.4-2.6-.4-3.9-.4-7.5,.4-15.1,1.8-22.5l.9-4.6c.1-.5,.5-1.4,.4-1.8,0,0,0-.1-.1-.2h0c-.1-.2-.2-.4-.3-.5h0v-.1c.4-1,.5-2.1,.8-3.1,1.2-3.7,2.8-7.6,4.8-10.8h0v.2c.7,2.4,1.3,4.8,2.2,7.1,.3,.9,.7,1.7,1.1,2.5l.3,.6c.5,1.2,1.1,2.3,1.5,3.6l1.3,4.2c.2,.5,.2,1.1,.5,1.6,.2-.1,.3,.1,.4,.2Z" />
    <path class="cls-36"
        d="M294.5,422.3c-1.6,1.4-3.4,2.5-5.1,3.7l-6.2,4.3h-.1c-4.5,1.2-8.5,3.7-12.5,6.1-1.3,.8-2.7,1.7-4.1,2.2h-.2c-1.6-1-3.6-1.5-5.3-2.3l-12.3-5.7-4.4-2.1-5.4-2.3c-.8-.4-1.6-.7-2.4-1.2-.1-.1-.2-.1-.4-.2,3.9-1.9,8-3.4,12.1-4.8l8.2-2.8c3.8-1.1,7.7-1.9,11.6-2.7,2.1-.4,4-1.1,6.1-.8h0c.7,.4,1.5,.6,2.2,.8,.2,.1,.4,.1,.6,.2l.9,.3,8.2,3.4,4.3,2,.2,.1c1.2,.7,2.4,1.4,3.8,1.8q.1-.1,.2,0c-.1,0,0,0,0,0Z" />
    <path class="cls-46"
        d="M315.8,411.7l6.8-.5,17.4-2.4c6.9-1.2,13.8-3,19.9-6.6,3.3-1.9,6.3-4.9,9.3-7.2,.6-.5,1.1-1.1,1.8-1.5v.3l-.7,.7v.2c-.3,.3-.3,.5-.5,.9-.6,.9-1,2-1.6,2.9-1.3,1.9-2.8,3.5-4.2,5.2-6.2,7.7-13,14.9-20.2,21.7-2.5,2.3-5.1,4.8-7.9,6.8l-5.4,2.9c-3,1.5-6.3,3.3-9.6,3.9-2,.4-4.2,.2-6.1,.2,3.2-8.6,4.7-18.6,1-27.5Z" />
    <path class="cls-21"
        d="M298.4,369.4l-.4,.6c-1.6,1-3.3,1.5-5.1,2.2l-6.3,2.5-19.6,8.8c-7.6,3.5-14.9,7.7-22.1,11.9-16.7,9.8-33,20.8-46.7,34.5-2.1,2.2-3.9,4.2-5.7,6.7-.9,1.2-1.8,2.4-2.4,3.8-.2-1,.1-2.2,.4-3.1,.5-2,1.1-4,2-5.9,.7-1.4,1.5-2.7,2.1-4.2l.1-.2,.5-.9v-.1c1.4-2.9,3.8-5.3,6-7.6l.1-.1,6.8-6.5q.1-.1,.2-.1c1.4-1.2,2.8-2.2,3.9-3.7l.4-.4c1.1-1.1,2.5-2.1,3.7-3l7.2-5.1c7.6-5.5,15.6-10.4,23.7-15.2,9.1-5.3,18.5-10.6,28.3-14.5l17.4-6,4.8-1.2c.2,2,.1,4.3,.6,6.3l.1,.5Z" />
    <path class="cls-34"
        d="M298.4,369.4l-.4,.6c-1.6,1-3.3,1.5-5.1,2.2l-6.3,2.5-19.6,8.8c-7.6,3.5-14.9,7.7-22.1,11.9-16.7,9.8-33,20.8-46.7,34.5-2.1,2.2-3.9,4.2-5.7,6.7-.9,1.2-1.8,2.4-2.4,3.8-.2-1,.1-2.2,.4-3.1,.5-2,1.1-4,2-5.9,.7-1.4,1.5-2.7,2.1-4.2l.1-.2,.5-.9c.6,.5,1,1,1.5,1.6-.5,.8-1.1,1.4-1.8,2.1-.3,.3-.4,.4-.5,.9,.2,.2,.3,.3,.4,.5-.3,.3-.7,.6-1,1-.1,.2-.3,.4-.5,.6l-.2,.3c-.3,.5-.5,.6-.4,1.1,2.6-4.4,7-7.5,10.7-10.9,4.4-4,8.9-7.8,13.7-11.2l6.6-4.6,10.9-7.5,7.6-4.5c8.2-4.9,16.5-9.7,25.1-13.8l31-12.8,.1,.5Z" />
    <path class="cls-24"
        d="M266.6,438.6s-.1,0,0,0c-3.3,1.8-6.5,4.1-9.6,6.4-6.7,4.9-12.9,10.1-18.8,15.9-1.7,1.7-3.5,3.3-5.1,5.1l-.1-.1h0c-4.9-4.4-9.3-9.5-13.8-14.2l-6.1-6.4c-1.6-1.7-3.3-3.1-4.5-5.1,3.1-2.7,7.1-4.6,10.7-6.6l5.2-3,6.5-3.2c1.7-.8,3.4-1.8,5.2-2.5,.1,.1,.2,.1,.4,.2,.8,.5,1.8,.7,2.6,1.1l5.4,2.3,4.4,2.1,12.3,5.7c1.7,.8,3.7,1.4,5.3,2.3q-.1-.1,0,0c-.1-.1,0,0,0,0Z" />
    <path class="cls-4"
        d="M505.7,472.5v26.9c-2.6-1.7-5.2-3.5-7.5-5.5-.1-.1-.3-.3-.5-.4,.1,4.6,.2,10.2,.1,16.2,2.6,.4,5.3,.9,7.9,1.5v36.4l-.4-.2c-.1,0-.1,.1-.2,.2-1.3,1.2-2.4,2.3-3.5,3.5s-2.2,2.5-3.2,3.9h0c-.6,.2-1.1,.6-1.7,1.1l-.1,.1c-.8,.7-1.5,1.6-2.2,2.1l-.8,.7-.9,.8-2.2,2-.2,.2-1.7,1.6s-.8-.4-1.7-.8c-.4-.2-.8-.4-1.1-.6-.3-.2-.5-.3-.7-.4-.1-.1-.2-.1-.2-.2-.2-.1-.3-.2-.4-.3-.9-.8-1.8-1.5-2.7-2.3l-6.6-4.6c-.4-.2-1-.6-1.5-.9-.3-.1-.7-.2-.9-.2h-.1c-.6,0-1.7,.4-2.3,.6l-2.1,.6-11.4,3.1-.3,.1-1.5,.4h-.1l-2.5,.7-3.6,.8-14.1,3.2v-.5l-.1,.1-.1,.1-.1,.1-.2,.1h-.1l-.2-.1h-.1l-.1,.1c-.2,.2-.4,.4-.6,.7-.3,.4-.8,.8-1.2,1.2h-.7v.1s0,.1-.1,.1v.1c-.3,.6-.9,1.4-1.5,2.1l-.1,.1c-.2,.2-.4,.4-.6,.6h0c-.2,.2-.4,.3-.5,.3h-.4q-.1,0-.1,.1h-.1c-.5,.2-1,.4-1.5,.6-.8,.3-1.7,.6-2.5,.9-.1,0-.2,0-.2,.1h-.1c-.2,0-.3,.1-.5,.1-1.8,.5-3.5,.8-5.3,.8-7,.1-13.9-1.2-20.6-3.2-5.6-1.7-11.2-3.9-16.3-6.7-3.1-1.7-5.9-3.7-8.8-5.9-2.7-2.1-5.5-4.2-7.9-6.6h0l-.1-.1c-3.9-3.5-7.5-6.8-10.9-10.8-5.2-6.1-9.4-12.9-13.4-19.8-2.6-4.4-5.2-8.7-7.3-13.3-4.7-10.1-7.6-20.8-10-31.6-2-8.7-3.2-17.6-5.3-26.3-.6-2.3-1.2-4.6-1.9-6.9v-.2h4.4c.6,0,1.1-.1,1.7-.2,.8-.1,1.6-.4,2.3-.6,.4-.1,.7-.2,1.1-.4l.9-.3c.5-.2,1-.5,1.6-.7,.1,0,.2-.1,.3-.1h.1c.9-.4,1.7-.9,2.6-1.3,.3-.1,.5-.2,.8-.4l.6-.3,4.4-2.4,.2-.1,.2-.1c2.8-2,5.4-4.5,7.9-6.8,.1-.1,.2-.2,.4-.3,.1-.1,.3-.2,.4-.4,5.1-4.8,10-9.9,14.6-15.2,.4-.5,.9-1,1.3-1.5v-.1h.1c1.2-1.4,2.3-2.8,3.5-4.2,.2-.3,.4-.6,.7-.8,.1-.1,.1-.2,.2-.2,.8-.9,1.5-1.8,2.3-2.8l.1-.1c.3-.4,.7-.9,1-1.3,.6-.9,1.1-1.9,1.6-2.9,.6-.6,1.2-1.3,1.7-2.1,1.3-1.8,2.5-3.8,3.6-5.5,.2-.3,.3-.5,.5-.8-.1,0-.1,.1-.2,.1s-.1,.1-.2,.1c-.5,.2-.9,.6-1.3,1-.2,.2-.4,.3-.7,.5-.2,.2-.5,.3-.7,.4-.5,.3-1.1,.6-1.6,.9h-.1c-1,.5-2.1,1-3.1,1.5l-1.5,.6c-1.7,.7-3.5,1.3-5.3,1.9-4,1.2-8.3,1.7-12.4,2.1-.4,0-.9,.1-1.3,.1h-.1c-.4,0-.8,.1-1.2,.1h-.7l-9.5,.6-13,.8h-20.9l-7.6-.6-7.5-.6h-.3c.2-1,1.2-2.4,1.7-3.3l.2-.4,4.7-9.2c.9-1.6,1.8-3.2,2.6-4.9,1-1.8,1.9-3.7,2.8-5.6v-.1c-.3-1.2-.1-2.4-.5-3.5l.3-.4,.1-.1v-.1h0l-.1-.5c-.4-1.9-.4-4.3-.6-6.3-.4-1.6-.3-3.3-.3-4.9v-10.6l-.1-21.5v-1.4c0-.3,0-.6,.1-.9v-.2c0-.8,0-1.5-.2-2.1h0c0-.1-.1-.2-.1-.3,0,0,0-.1-.1-.1l-.2-.1v-.4l.3-.6c.9-2,2.3-3.8,3.6-5.6,2.4-3.3,5.3-7.5,9.1-9.2,3-1.3,6.1-2,9.2-2.9l5.6-1.7c3-.7,6.3-1.3,9.5-1.8,.7-.1,1.4-.2,2-.3,8.9-1.3,17.6-2,26.6-2,7.5,0,15.1,.3,22.6,1.3,2.7,.4,5.4,.8,8.1,1.4,2.3,.5,4.5,1,6.8,1.6,.9,.2,1.8,.5,2.6,.7,3.8,1.1,7.6,2.1,11.3,3.6,2.2,.9,4.3,1.9,6.4,2.9,2.5,1.3,5,2.7,7.5,4.1,1.8,1.1,3.7,2.2,5.5,3.3,.3,.2,.5,.3,.8,.5,.4,.3,.8,.5,1.2,.8,.4,.3,.8,.6,1.2,.9,.4,.3,.8,.5,1.1,.8,0,0,.1,0,.1,.1h0c1.2,.9,2.2,1.8,3.3,2.8,1.5,1.3,2.9,2.6,4.3,4,.6,.6,1.2,1.1,1.8,1.7,0,0,.1,0,.1,.1l4,4.3,2.6,2.8c.6,.7,2.2,2.1,2.5,2.9h0c-.1,0-.2-.1-.3-.1-2.1-1-4.2-1.7-6.4-2.2-.6-.1-1.2-.2-1.8-.3l.1,.1c.1,.1,.2,.2,.4,.3,.3,.3,.6,.5,.9,.8,.5,.5,1,.9,1.5,1.4,2.6,2.8,4.9,5.8,7.1,8.8,1.3,1.7,2.3,3.6,3.7,5.3,2.6,4.3,5.4,8.5,7.6,13,2.9,5.9,5.1,12,7.7,18,1.1,.4,2.4,2.6,3.2,3.5l10.3,12.4c.4,.4,.8,.9,1.1,1.4,1.7,1.9,3.4,4.1,4.5,6.2l.3,.6c0,.1,.1,.1,.1,.2v3.6l.2,33.7v2.4l.2,16.4v1.3l.4,10c.1,1.8,.6,3.7,.7,5.5v.7c0,.6-.2,1-.5,1.6l-.3,.6,.1-.1c.9-.6,1.7-1.5,2.4-2.3,.6-.7,1.1-1.4,1.6-2l3.7-4.7Z" />
    <path class="cls-61" d="M298.4,369.4c.7,0,1.3,.2,2,.5l-1.9,3.7c-.4-1.2-.1-2.5-.5-3.6l.4-.6Z" />
    <path class="cls-62"
        d="M374.9,327.3c3.5,.4,6.9,1.6,10.2,2.6,4.9,1.6,10,3.3,14.8,5.4,4.7,2.1,9.1,4.6,13.6,7.2,1.4,.8,2.9,1.5,4.3,2.4,2.1,1.4,4.2,2.8,6.1,4.5l3.1,2.6c.6,.5,1.2,1.1,1.8,1.5l.3-.4c3.5,3.8,6,8.6,8.3,13.2,3.2,6.3,6.1,12.8,7.5,19.7-1.5-1.4-2.5-3.6-3.7-5.3-11.9-16.6-28.2-30-47.2-37.7l-7.2-2.6c-1.3-.4-2.6-.9-4-1.1-2.3-.4-5.7-.2-7.9,.7-1.1,.5-2.1,1.2-3.1,2-.4-.6-.1-2.6-.2-3.5v-.5c.5-.1-.6-2.8,0-4.2,.9-2.3,4.4-4.4,3.3-6.5Z" />
    <path class="cls-71"
        d="M301.2,317.1c3.7-1.5,7.6-2.9,11.5-3.9,4.2-1.1,8.5-1.7,12.8-2.3l9.5-1.3c7-.6,14.2-.6,21.2-.2,4.2,.3,8.6,.7,12.7,1.5,6.1,1.2,12,3.2,17.8,5.5,17.7,7.3,31.1,21.6,42.4,36.6l-.3,.4c-.7-.4-1.3-1-1.8-1.5l-3.1-2.6c-1.9-1.6-4-3.1-6.1-4.5-1.4-.9-2.9-1.6-4.3-2.4-4.5-2.6-8.9-5-13.6-7.2-4.7-2.1-9.8-3.8-14.8-5.4-3.3-1.1-6.7-2.2-10.2-2.6,1,2-.2,4.3-1.1,6.6-.5,1.5-1.6,4-2.2,4.1v.5c.1,.9-.1,2.8,.2,3.5-.6,.6-1.4,1.2-1.9,1.9-1.2,1.5-2.1,3.4-3.1,5-1.3,2.4-2.9,4.7-4.3,7.1l-3,5c-1,1.7-2,3.6-3.3,5l-43.7,.1-7.8,.1c-.6,0-1.7-.1-2.2,0-.1,0-.4,.2-.5,.3l-.6,.9-.7,.6v.3c0,.5-.3,1.1-.6,1.5-.7-.2-1.3-.5-2-.5l-.1-.5c-.4-1.9-.4-4.3-.6-6.3-.4-1.6-.3-3.3-.3-4.9v-6.1l-.1-26c-.1-1.4,.4-3.9-.3-5l-.2-.1,.2-.5c.7-.6,1.3-1.3,2-1.8,1-.3,1.8-.6,2.5-.9Z" />
    <path class="cls-13"
        d="M367,349c-.3-.9,.4-2.1,.8-3l4-7.4c.1,.9-.1,2.8,.2,3.5-.6,.6-1.4,1.2-1.9,1.9-1.2,1.5-2.1,3.3-3.1,5Z" />
    <path class="cls-79"
        d="M297,320c.7-.6,1.3-1.3,2-1.8,.6-.5,1.5-.8,2.2-1.1l.1,2.8,.1,25.1v15.2c0,2.4-.2,4.9,.3,7.2l-.7,.6v.3c0,.5-.3,1.1-.6,1.5-.7-.2-1.3-.5-2-.5l-.1-.5c-.4-1.9-.4-4.3-.6-6.3-.4-1.6-.3-3.3-.3-4.9v-6.1l-.1-26c-.1-1.4,.4-3.9-.3-5l-.2-.1,.2-.4Z" />
    <path class="cls-82"
        d="M297,320c.7-.6,1.3-1.3,2-1.8,.6-.5,1.5-.8,2.2-1.1l.1,2.8c-1.3,.1-2.4,.3-3.6,.8-.1,.7-.2,4.8-.3,4.9-.1-1.4,.4-3.9-.3-5l-.2-.1,.1-.5Z" />
    <path class="cls-17"
        d="M325.9,322.2l.2-.3c2.4-3.8,6.4-7.4,11-8.4,5.7-1.2,11-.7,15.9,2.6,2.3,1.6,4.9,4,6.3,6.4,.9,1.5,1.5,3.6,1.8,5.3,1,4.4,.3,8.6-2,12.4s-5.6,6.5-9.4,8.5c-1.3,.7-2.7,1.4-4.2,1.7-5.3,1.3-10.8,.7-15.4-2.2-3.8-2.4-6.1-6-7.1-10.3-1-4.6,0-8.6,1.4-12.9,.5-1,1-1.9,1.5-2.8Z" />
    <path class="cls-14"
        d="M326.2,323l.1-.5c.2-.6,.4-.9,.9-1.2l.2,.2c.4,.3,.7,.4,1.3,.3h.3l-1.7,3-.1,.2c-.2-.8-.5-1.4-1-2Z" />
    <path class="cls-55"
        d="M325.9,322.2l.3,.8c.5,.6,.8,1.2,1.1,2l-.7,1.8c-.5-.2-.7-.3-1.1-.7-.2-.3-.4-.5-.7-.8l-.3-.2c.4-1.1,.9-2,1.4-2.9Z" />
    <path class="cls-86"
        d="M331,343l.3-.2c3.5,1.2,6.2,3.2,9.9,3.4l.1,.1c1,0,2.7,.2,3.7-.1l1.8-.6c.3-.2,.5-.4,.9-.4h.2c.4-.1,.9-.2,1.3-.4l1.8-.8v.4c-1.6,1.2-4.5,2.3-6.5,2.4-1.7,.1-3.7,.2-5.4,0-.9-.1-1.8-.5-2.7-.8-2.1-.9-3.8-1.6-5.4-3Z" />
    <path class="cls-1"
        d="M354,339.4c.6,0,1.1,0,1.7-.1l.5,.2c-1.5,1.8-3.2,3.6-5.3,4.7v-.4l-1.8,.8c-.4,.2-.9,.3-1.3,.4h-.2c-.4,.1-.6,.3-.9,.4l-1.8,.6c-.9,.3-2.6,.1-3.7,.1l-.1-.1c.2-.1,1.1-.1,1.4-.1,.6-.4,1.5-.1,2.2-.3l.3-.1c.3-.1,.6,0,.8-.2l.1-.1h.3l.2-.3c-.4,0-.7,.1-1.1,.2l-.2,.1c-.4,.2-.5,.2-.9,0l.4-.1c.5-.2,.8-.3,1.3-.4,.4-.2,.9-.3,1.3-.4,1.1-.3,2-.8,3-1.3,1.5-.5,3-2.1,3.8-3.6Z" />
    <path class="cls-58"
        d="M329.1,321.8c2.3-3.4,6-5.8,10-6.6,2.4-.5,5.5-.4,7.8,.3,1.6,.5,3,1.2,4.6,1.8,2.7,.9,5.5,5.2,6.5,7.7,1.4,3.5,1.2,8.4-.3,11.8-.4,1-.9,2-1.5,2.9l-.5-.2c-.6,.1-1.1,.1-1.7,.1l2.1-3.2,.3-.7c1.2-2.7,1.7-6.2,.7-9l-.2,.1c-.4-.5-.5-1.1-.8-1.6-.7-1.1-1.8-1.9-2.8-2.6l-.2,.1-.2-.1c-.4-.3-1.1-.7-1.2-1.2l-.3-1.2,1.6,1c-.4-1.1-1.3-2.1-2.4-2.6l-.8-.4c-3-1.3-6.5-2.1-9.8-1.4h-.2l-3,.9c-1.9,.7-3.4,2.2-5,3.4-.7,.5-1.5,.9-2.1,1.4-.5,.5-.9,1-1.2,1.6l-.7,1.1-.4-.2,1.7-3.2Z" />
    <path class="cls-69"
        d="M356.1,336.2q0,.4,.3,.7c.2-.2,.3-.4,.4-.7l.1-.2,1-2.2,.2,.1c-.3,1.9-1.5,3.8-2.5,5.4-.6,.1-1.1,.1-1.7,.1l2.2-3.2Z" />
    <path class="cls-14"
        d="M351.4,320l1.6,1c2.1,1.4,3.3,3.2,4.1,5.5l-.2,.1c-.4-.5-.5-1.1-.8-1.6-.7-1.1-1.8-1.9-2.8-2.6l-.2,.1-.2-.1c-.4-.3-1.1-.7-1.2-1.2l-.3-1.2Z" />
    <path class="cls-69"
        d="M327.4,324.8l.4,.2,.7-1.1c.4-.6,.7-1.2,1.2-1.6,.6-.6,1.4-.9,2.1-1.4,1.6-1.2,3.1-2.7,5-3.4l3-.9h.2c3.3-.7,6.8,.1,9.8,1.4l.8,.4c1.1,.5,2,1.5,2.4,2.6l-1.6-1,.3,1.2c.1,.5,.7,.9,1.2,1.2l.2,.1v.3l-.7-.2c-.5-.2-.9-.2-1.4-.3-1-.9-2-1.6-3.3-2-3.4-1-6.4-.5-9.5,1.2l.1-.2c.2-.6,.4-.9,.8-1.3-.4,.1-.5,.2-.8,.5-.1,.4,0,.6-.3,.9h-.2l-.2,.2c-.2,.2-.4,.3-.7,.4,0-.6,0-.8-.4-1.3l-.1,.1-2.6,2.3c.2-.6,.4-.9,.9-1.3l.2-.1-.1-.1-.4,.3-.3-.1c-2,1.3-3.9,4.8-4.4,7.1-.3,1.5-.3,3,.1,4.5l.1,.3c1.1,4,5,7.7,8.6,9.7l.7,.4c2.3,1.3,4.3,1.4,6.9,1.4-.5,.1-.8,.2-1.3,.4l-.4,.1c.4,.2,.5,.2,.9,0l.2-.1c.4-.2,.7-.2,1.1-.2l-.2,.3h-.3l-.1,.1c-.3,.2-.5,.1-.8,.2l-.3,.1c-.7,.2-1.6-.1-2.2,.3-.3,0-1.1,0-1.4,.1-3.8-.2-6.5-2.2-9.9-3.4l-.3,.2c-.8-.2-2-1.8-2.5-2.5-2.2-2.9-3.3-7.3-2.7-10.9v-.3c.2-.9,.4-1.7,.7-2.6l.7-1.8,.1-.4Z" />
    <path class="cls-3"
        d="M333.9,321.6c1.8-1.7,4.6-3.1,7-3.7l.3-.1c2.2-.6,4.2-.3,6.3,.3l.3,.1c1.3,.4,2.4,1,3.5,1.8l.3,1.2c.1,.5,.7,.9,1.2,1.2l.2,.1v.3l-.7-.2c-.5-.2-.9-.2-1.4-.3-1-.9-2-1.6-3.3-2-3.4-1-6.4-.5-9.5,1.2l.1-.2c.2-.6,.4-.9,.8-1.3-.4,.1-.5,.2-.8,.5-.1,.4,0,.6-.3,.9h-.2l-.2,.2c-.2,.2-.4,.3-.7,.4,0-.6,0-.8-.4-1.3l-.1,.1-2.6,2.3c.2-.6,.4-.9,.9-1.3l.2-.1-.1-.1-.4,.3-.4-.3Z" />
    <path class="cls-25"
        d="M333.7,323l2.6-2.3,.1-.1c.4,.5,.3,.7,.4,1.3,.3-.1,.4-.2,.7-.4l.2-.2h.2c.3-.3,.3-.5,.3-.9,.3-.3,.4-.4,.8-.5-.4,.4-.6,.8-.8,1.3l-.1,.2-1,.7-.3,.1c-1.2,.4-2.2,2-2.7,3.1-1.2,2.6-1.3,5.7-.2,8.4,.3,.7,.6,1.3,1.1,2l.2,.2c.8,1.2,1.9,2.3,3.1,3l.3,.1c2.2,1.2,5.2,1.4,7.6,.7,3.6-1.1,5.7-3.3,7.4-6.5,.9-1.6,1.3-4.5,.7-6.3l-.9-2.2-1-.4c-.4-.8-.8-1.4-1.3-2.1,.5,0,.9,.1,1.4,.3l.7,.2v-.3l.2-.1c1.1,.7,2.1,1.5,2.8,2.6,.3,.5,.5,1.1,.8,1.6l.2-.1c1,2.8,.5,6.4-.7,9l-.3,.7-2.1,3.2c-.8,1.5-2.3,3-3.8,3.8-1,.5-1.9,1-3,1.3-.4,.1-.9,.2-1.3,.4-2.6,0-4.6-.1-6.9-1.4l-.7-.4c-3.6-2-7.5-5.6-8.6-9.7l-.1-.3c-.4-1.5-.4-3-.1-4.5,.5-2.3,2.4-5.8,4.4-7.1l.3,.1,.4-.3,.1,.1-.2,.1c-.5,.7-.7,1-.9,1.6Z" />
    <path class="cls-55"
        d="M333.7,323l2.6-2.3,.1-.1c.4,.5,.3,.7,.4,1.3,.3-.1,.4-.2,.7-.4l.2-.2h.2c.3-.3,.3-.5,.3-.9,.3-.3,.4-.4,.8-.5-.4,.4-.6,.8-.8,1.3l-.1,.2-1,.7-.3,.1c-1.2,.4-2.2,2-2.7,3.1-1.2,2.6-1.3,5.7-.2,8.4,.3,.7,.6,1.3,1.1,2l.2,.2c.8,1.2,1.9,2.3,3.1,3l.3,.1c2.2,1.2,5.2,1.4,7.6,.7,3.6-1.1,5.7-3.3,7.4-6.5,.9-1.6,1.3-4.5,.7-6.3l-.9-2.2-1-.4c-.4-.8-.8-1.4-1.3-2.1,.5,0,.9,.1,1.4,.3l.7,.2c1.3,1.3,2.1,2.7,2.4,4.5v.3c.4,3-.7,6.6-2.5,8.9-2.2,2.9-5.1,5.3-8.9,5.7-.9,.1-1.6,0-2.4-.1l-.6-.1c-.2-.2-.8-.3-1.2-.5-.8-.3-1.6-.7-2.4-1.1-2.5-1.6-5-5.1-5.6-7.9-.8-3,0-6.8,1.7-9.4Z" />
    <path class="cls-34"
        d="M338.1,321.5c3.1-1.7,6.1-2.2,9.5-1.2,1.3,.4,2.3,1.1,3.3,2,.5,.7,1,1.3,1.3,2.1l1,.4,.9,2.2c.5,1.8,.1,4.7-.7,6.3-1.7,3.2-3.8,5.4-7.4,6.5-2.3,.7-5.4,.6-7.6-.7l-.3-.1c-1.2-.7-2.4-1.8-3.1-3l-.2-.2c-.4-.6-.8-1.3-1.1-2-1.1-2.7-.9-5.7,.2-8.4,.5-1.1,1.5-2.7,2.7-3.1l.3-.1,1.2-.7Z" />
    <path class="cls-4"
        d="M338.1,321.5c3.1-1.7,6.1-2.2,9.5-1.2,1.3,.4,2.3,1.1,3.3,2,.5,.7,1,1.3,1.3,2.1l.3,.9c.1,.5,.2,.8-.1,1.3-1.2,.1-2.4-.3-3.5-.8-.4-.5-.3-1-.3-1.7v-.3l-1.6-.3c-2-.2-3.9-.3-5.9-.4-.7-.1-1.9-.3-2.5,0-.2,.1-.4,.3-.5,.4-.6-.3-.8-.7-1.1-1.3l1.1-.7Z" />
    <path class="cls-55"
        d="M497.5,481.7c0,.7,0,3.2,.1,6.8v.6c0,1.3,.1,2.8,.1,4.4,.1,4.6,.2,10.2,.1,16.2,0,6.4-.1,13.2-.5,19.8v.3c-.1,1.5-.2,3-.3,4.5,0,.7-.1,1.3-.1,2-.7,9.3-1.9,17.5-3.9,22.5-.1,.3-.2,.5-.3,.8,0,.1-.1,.2-.1,.3s-.1,.1-.1,.2c-.4,.8-.8,1.5-1.3,2.1l-.9-.1h-.3l-5.5-.7h-.4l-.4-.1-9.6-1.3-16.7-2.2-.6-.1h-.3l-2.3-.3h-.1l2.6-10.9,.3-1.4,3-12.8,.2-.6,.5-2,3.3-13.9,1.3-5.7,.4-1.8,.1-.5,.4-1.8,.5-2.2v-.3l.1-.4c2.7-22,.3-44.2-5-65.6-.6-1.5-.7-3.4-1.1-5.1l-3.1-11.7-7.9-23.4-4.6-11c-1.5-7-4.3-13.4-7.5-19.7-2.3-4.6-4.9-9.4-8.3-13.2-1.5-2-3.1-4-4.7-6-1.3-1.6-2.6-3.2-4-4.7-1.2-1.3-2.4-2.6-3.6-3.9-4.3-4.6-8.9-8.8-13.9-12.5s-10.4-7-16.3-9.4c-3.5-1.5-7-2.8-10.7-3.8-2.3-.7-4.7-1.2-7.1-1.7-4.2-.8-8.5-1.2-12.7-1.5-5.2-.4-10.5-.5-15.8-.2-1.3,.1-2.7,.2-4,.3-.5,0-1,.1-1.4,.1l-9.5,1.3c-4.3,.6-8.6,1.2-12.8,2.3-3.9,1-7.8,2.4-11.5,3.9-.1,0-.2,.1-.3,.1-.6,.3-1.3,.5-1.9,1-.6,.3-1.1,.7-1.5,1.1-.3,.2-.5,.5-.8,.7,.1-.3,.2-.5,.3-.8,.9-2,2.2-3.7,3.6-5.4,2.4-3.3,5.3-7.5,9.1-9.2,3-1.3,6.1-2,9.2-2.9l5.6-1.7c3.1-.7,6.3-1.3,9.5-1.8,.7-.1,1.3-.2,2-.3,8.9-1.3,17.6-2,26.6-2,7.5,0,15.1,.3,22.6,1.3,2.7,.4,5.4,.9,8.1,1.4,2.3,.5,4.5,1,6.8,1.6,.9,.2,1.7,.5,2.6,.7,3.8,1.1,7.6,2.1,11.3,3.6,2.2,.9,4.3,1.8,6.4,2.9,1.2,.6,2.5,1.3,3.7,1.9,.2,.1,.3,.2,.4,.2,1.1,.6,2.3,1.3,3.4,1.9,2.9,1.7,5.9,3.5,8.7,5.5,.4,.3,.8,.6,1.3,.9,1.1,.9,2.2,1.8,3.3,2.8,1.5,1.3,2.9,2.6,4.3,3.9,.6,.6,1.3,1.2,1.9,1.8h0l3.9,4.2,2.7,2.9c.6,.7,2.1,2,2.5,2.8v.1c-.1,0-.1-.1-.2-.1-2.2-1-4.3-1.8-6.6-2.2-.5-.1-1.1-.2-1.6-.3h-.1c.1,.1,.2,.2,.4,.3,.3,.3,.6,.6,1,.9,.5,.5,1,.9,1.5,1.4,2.6,2.8,4.9,5.8,7.1,8.8,1.3,1.7,2.3,3.6,3.7,5.3,2.6,4.3,5.4,8.5,7.6,13,2.9,5.9,5.1,12,7.7,18,1.1,.4,2.4,2.6,3.2,3.5l10.3,12.4c.3,.4,.6,.7,.9,1.1,1.7,2,3.6,4.2,4.7,6.5,.1,.2,.2,.3,.2,.5,.1,.1,.1,.2,.2,.3v3.5l.2,33.7v2.4l.2,16.4v1.3l.4,10v.1c.1,1.8,.6,3.6,.7,5.4v.8c0,.6-.2,1-.5,1.6l-.2,.4-.1,.2c.2-.5,.2-.4,.2-.3Z" />
    <path class="cls-36"
        d="M477.2,381.8c1.1,.4,2.4,2.6,3.2,3.5l10.3,12.4c1.9,2.3,77.4,48.1,78.7,50.8,.1,.3,.1,20,.3,20.3l-.3,19.5-72.1-6.6-1.2,1.2-.1-1.3c-.4-3.6-1.6-7.1-2.6-10.6-1.3-4.4-2.4-8.5-4.6-12.6-.7-1.3-1.4-2.6-2.4-3.7-.7-.7-1.5-1.3-2.3-2,2-.7,4-1.1,6.2-1.2-.1-10-.1-19.8-1.6-29.7-1.6-10.3-5.1-20.3-8.4-30.2l-3.1-9.8Z" />
    <path class="cls-71"
        d="M335.9,432.3l.2,.1c2.1,.9,4.4,.6,6.6,.8,2.4,.3,5,1.3,7.2,2.4,5.4,2.7,9.4,6.7,13.9,10.7l9.1,7.7c2.4,1.9,5.1,3.6,7.8,5.2,1.1,.6,2.2,1.1,3.2,1.8l.7,.4c4.4,1.9,9,3.8,13.7,4.9,9.7,2.3,21.6,2.5,31.1-1.2l4.6-2.1c2.3-1.3,4.7-2.5,7-4,8.5-5.7,14.4-14,20.7-21.9,5.3,21.4,7.7,43.6,5,65.6l-4.1,24.4s23.2,35.3,22.2,34.6c-1.2-.9-2.2-1.9-3.4-2.8l-6.6-4.6c-.6-.4-1.7-1.1-2.4-1.1-.5,0-1.8,.4-2.4,.6l-17.8,4.9-17.7,4v-.5l-.5,.3-.3-.1c-.4,.2-.5,.5-.8,.8-.3,.4-.8,.8-1.2,1.2h-.6c-.4,.9-2,3.2-2.9,3.5l-.4,.1c-1.4,.5-2.8,1.1-4.2,1.6-2,.7-4,1-6.1,1-7,.1-13.9-1.2-20.6-3.2-5.6-1.7-11.2-3.9-16.3-6.7-3.1-1.7-5.9-3.7-8.8-5.9-2.7-2.1-5.5-4.2-7.9-6.6-3.9-3.5-7.6-6.9-11-10.9-5.2-6.1-9.4-12.9-13.4-19.8-2.6-4.4-5.2-8.7-7.3-13.3-4.7-10.1-7.6-20.8-10-31.6-2.5-11.1-3.8-22.5-7.3-33.4,2,0,4.2,.1,6.1-.2,3.3-.6,6.6-2.4,9.6-3.9l5.3-2.8Z" />
    <path class="cls-63"
        d="M443.6,511l2.1-9c.5,2.5,1.2,4.9,1.5,7.4,1.6,12.2,.3,25.5-3.9,37.1-1.1,3-2.2,6-3.9,8.7-.9,1.4-1.9,2.8-2.9,4.1-.9,1.1-2,2-2.8,3.1-.4,.2-.5,.5-.8,.8-.3,.4-.8,.8-1.2,1.2h-.6c7-16.9,11-35.1,12.5-53.4Z" />
    <path class="cls-13"
        d="M384.7,461.5c4.4,1.9,9,3.8,13.7,4.9,9.7,2.3,21.6,2.5,31.1-1.2l4.6-2.1c.8,3.4,1.8,6.7,2.8,10.1,2.6,9.1,5,18.3,5.1,27.9l-11.6-4.8c-6.6-2.9-12.8-6.2-18.8-10-7-4.4-13.3-9.7-19-15.8l-4.3-5c-.9-.9-3.3-2.9-3.6-4Z" />
    <path class="cls-8" d="M505.6,547.8l-.4-.2" />
    <path class="cls-62"
        d="M364,548.4l.3-.6c-.4-1.4-1.1-2.7-1.7-4.1-.5-1.2-.8-2.5-1.4-3.7-.7-1.6-1.8-3.1-3-4.4-1.2-1.4-1.9-3.1-3-4.6l-7.3-9.8c-1.9-2.7-3.5-5.8-4.8-8.8-1-2.2-1.6-4.7-2.4-6.9-.7-1.8-1.1-3.6-1.6-5.4-.2-1-.6-1.9-.6-2.9h.2c.8,1.6,1.8,3.1,2.8,4.6,3.8,5.6,8.8,10.3,13.6,15l4.4,3.9c2.8,2.4,6.1,4.4,9.3,6.3,3.5,2,7,4,10.8,5.5,6.7,2.6,14,3.6,21.2,3,13.2-1.1,25.8-7,35.4-16.1,2.7-2.6,5-5.4,7.5-8.3-1.5,18.3-5.6,36.5-12.5,53.6-.4,.9-2,3.2-2.9,3.5l-.4,.1c-1.4,.5-2.8,1.1-4.2,1.6-2,.7-4,1-6.1,1-7,.1-13.9-1.2-20.6-3.2-5.6-1.7-11.2-3.9-16.3-6.7-3.1-1.7-5.9-3.7-8.8-5.9-2.7-2.2-5.5-4.3-7.9-6.7Z" />
    <path class="cls-42"
        d="M335.9,432.3l.2,.1c2.1,.9,4.4,.6,6.6,.8,2.4,.3,5,1.3,7.2,2.4,5.4,2.7,9.4,6.7,13.9,10.7l9.1,7.7c2.4,1.9,5.1,3.6,7.8,5.2,1.1,.6,2.2,1.1,3.2,1.8-.9,1-1.9,2-2.6,3.2l-8.3,12.2-4.2,7.6c-.8,1.3-1.6,2.6-2.3,4l-4.7,10.3-3.3,7.7c-.6,1.5-1.4,3-1.9,4.6-.7,2-1.1,4-1.6,6-4.8-4.7-9.7-9.4-13.6-15-1-1.5-2.1-3-2.8-4.6h-.2c-.1,1,.3,1.9,.6,2.9,.5,1.8,.9,3.6,1.6,5.4,.8,2.3,1.5,4.7,2.4,6.9,1.3,3,2.9,6.1,4.8,8.8l7.3,9.8c1.1,1.5,1.8,3.2,3,4.6,1.2,1.3,2.2,2.8,3,4.4,.5,1.2,.9,2.5,1.4,3.7,.6,1.4,1.3,2.7,1.7,4.1l-.3,.6c-3.9-3.5-7.6-6.9-11-10.9-5.2-6.1-9.4-12.9-13.4-19.8-2.6-4.4-5.2-8.7-7.3-13.3-4.7-10.1-7.6-20.8-10-31.6-2.5-11.1-3.8-22.5-7.3-33.4,2,0,4.2,.1,6.1-.2,3.3-.6,6.6-2.4,9.6-3.9l5.3-2.8Z" />
    <path class="cls-9"
        d="M505.5,547.9v80.5c-8.9,6-18.1,11.5-27.7,16.5H204.3c-20.1-10.5-38.8-23.4-55.8-38.1,.2-.4,.4-.8,.6-1.1l2.9-6.9c.4-.9,1.2-1.6,1.7-2.4,.6-.8,1-1.7,1.5-2.5l.4,.1c.6-.3,4.1-8.1,4.6-9.2l8.9-17.2,3.8-7,1.7-2.8h0l2.2-3.5,8.4-14.5,6.1-10.4,12.3-23.8,8.8-14.6,5-7.1,3-3.4,.7-.8,4.1-4.7,.1-.1,7.6-8.8h0v-.1c.3-.3,.6-.6,.9-1l.3-.3c.8-.8,1.7-1.6,2.5-2.4,.4-.4,.9-.8,1.3-1.3,5.9-5.8,12.1-11,18.8-15.9,.1-.1,.2-.1,.3-.2l.9-.6c1.3-.9,2.7-1.9,4.1-2.9,.2-.2,.4-.3,.6-.4,.4-.3,.8-.5,1.2-.8,.3-.2,.5-.3,.8-.5,.2-.1,.4-.2,.5-.3,.3-.2,.7-.4,1-.6h.2c.5-.2,1-.5,1.5-.8,.4-.2,.7-.4,1.1-.6,.5-.3,1-.6,1.5-.8,4-2.3,8-4.9,12.5-6.1l.1-.1,6.2-4.2c.6-.5,1.3-.9,1.9-1.3,1.1-.7,2.1-1.4,3.1-2.3,0,0,.1,0,.1-.1,.8-.7,1.7-1.3,2.6-2h.1c.3-.2,.7-.5,1-.7,1.5-1.1,2.9-2.4,4.6-3.2,.1,0,.1-.1,.2-.1,0,0,.1,0,.1-.1l.2-.1v-3.9h.1l7.6-.2h0l4.8-.2h0c.7,1.6,1.1,3.2,1.5,4.9,.4,1.9,.6,3.9,.6,5.8v2.5c-.2,3.7-.9,7.5-2,11v.1c-.3,1-.6,2-1,2.9h0c0,.1-.1,.2-.1,.3,3.5,10.9,4.9,22.3,7.3,33.4,2.4,10.8,5.3,21.5,10,31.6,2.2,4.6,4.8,8.9,7.3,13.3,4,6.9,8.2,13.7,13.4,19.8,3.4,4,7.2,7.4,11,10.9,2.5,2.4,5.2,4.6,7.9,6.6,2.8,2.1,5.7,4.2,8.8,5.9,5.1,2.8,10.8,5,16.3,6.7,6.1,1.8,12.4,3.1,18.8,3.2h2.5c1.7-.1,3.3-.4,5-.9,.2,0,.3-.1,.5-.1h.1c1.4-.5,2.7-1.1,4.1-1.6h.1l.3-.1h.1c.4-.2,.8-.7,1.3-1.2l.1-.1c.6-.8,1.2-1.7,1.4-2.1h.6l.1-.1c.4-.4,.8-.7,1.1-1.1,.3-.3,.4-.6,.8-.8h.1l.2,.1,.2-.1,.3-.2v.5l14.6-3.3,3.1-.7,2.9-.8h.1l.3-.1,1.8-.5h0l11-3,1.7-.5c.6-.1,1.9-.6,2.4-.6,.7,.1,1.8,.7,2.4,1.1l6.6,4.6c.8,.6,1.5,1.2,2.2,1.9,.4,.3,.8,.6,1.2,.9,1.1,.8,2.3,1.3,3.5,1.8l.2-.2,1.8-1.6,2.2-2,1.1-.9,.5-.5s.1,0,.1-.1c0,0,.1,0,.1-.1h0c1.1-1,2.5-2.7,3.8-3.1,2.2-2.8,4.4-5.2,7-7.6l.1,.1h.5Z" />
    <path class="cls-82"
        d="M309.9,476.5l1.7-5.2,.8,5.2-.2,1.2v-.2c0-.5-.1-.9-.2-1.4v-.8c-1,.3-.9,1.4-1.7,1.9l-.4-.7Z" />
    <g>
        <path class="cls-67"
            d="M469.8,397.5v-1.7l.4-.2,35.7,18.4c.5,.3,.9,.5,1.4,.9,.3,2.3,0,4.6-.3,6.9-.8,6.6-2.9,13-7,18.3l-.8,1-.2,.5h-.4l-.2-.5h-.3l-.1,.2c-.5,.9-1.1,1.7-1.9,2.4l-.3-.5c-.6-.9-1.2-1.8-2-2.7-.2-.7-.7-1.4-1.1-2l-4-6.5-.3,.3-.1,.3c-.4,0-.6,0-1.1-.1-1.4-.2-2.4,.1-3.8,.1-2.4,.1-4.9,0-7.3-.2-2.3-.2-4.2-.2-6.4-1.2l-.5,.1-.2,1.2c-.5-3.4-.2-7.2-.1-10.6l.9-24.4Z" />
        <path class="cls-41"
            d="M469.8,397.5l.7,.1c.2,.6,.3,1.2,.3,1.8,.2,3.9,2.5,7.7,4.3,11,1.4,2.5,2.6,5,4.2,7.4,1.9,2.8,4.3,5.6,5.9,8.6,.6,1.1,1.4,2,1.9,3.1,.2,.5,.6,.9,.8,1.4l.3,.4,.5,.7-.3,.3-.1,.3c-.4,0-.6,0-1.1-.1-1.4-.2-2.4,.1-3.8,.1-2.4,.1-4.9,0-7.3-.2-2.3-.2-4.2-.2-6.4-1.2l-.5,.1-.2,1.2c-.5-3.4-.2-7.2-.1-10.6l.9-24.4Z" />
        <path class="cls-41"
            d="M578,366.4v185.6c-3.3-1.4-6-4.2-8.6-6.6l-5.7-5.4v-.3c-.1-.8-.8-1.6-1.2-2.2l-3.7-5.7-2.8-5-4.7-7-4.2-5.8-.1-.2c-1.1-.2-1.2-.1-2-.9l-.1-.1-.1,.3-.2,.8-.2-.2-.6-.5c-.7,.5-1.6,.4-2.4,.3-5-.2-9.8-2.3-14.4-4.2-7.3-2.9-14.6-6-21.3-10.2-2.6-1.7-5.2-3.5-7.5-5.5-.1-.1-.3-.3-.5-.4-2.3-2-4.5-4.2-6.5-6.5-1.5-1.8-2.8-3.8-4.3-5.5l-.2-.2-2.7-3.8c-1.6-1.7-2.5-3.8-3.5-5.9-1.9-3.9-3.4-7.9-5-12-.9-2.4-2.1-4.8-2.8-7.2-1.1-2.8-1.3-5.6-1.8-8.5-.9-3.5-1.1-7.6-1.5-11.3l.2-1.2,.5-.1c2.2,1,4.1,1.1,6.4,1.2,2.4,.2,4.9,.3,7.3,.2,1.4,0,2.4-.4,3.8-.1,.4,.1,.6,.1,1.1,.1l.1-.3,.3-.3,1,1.6,3,4.9c.4,.6,.8,1.3,1.1,2,.8,.8,1.3,1.7,2,2.7l.3,.4c.3-.2,.5-.5,.7-.8,.5-.5,.8-1.1,1.2-1.7l.1-.2h.3l.2,.5h.3l.2-.5,.8-1c4.1-5.3,6.2-11.7,7-18.3,.3-2.3,.6-4.6,.3-6.9,3.7,2.6,7.5,5.2,10.8,8.3,2.5,1.8,5.2,4.2,7,6.6,1.6,1.8,8.5,9.8,8.3,12-.2,3.2-2,6.6-2.8,9.7l.2,.1,2.6-8.1c.3,.5-.1,1.1-.2,1.7l-.3,1.4c-.3,.9-.5,1.8-.8,2.7l-.2,.4v.6c-.2,.6-.2,.7-.1,1.3,.9-3.2,2.1-6.4,2.3-9.7l1.7,3.8,.1,.3,.3-2.9,.1-6.1c-.1-1.9,.4-4.4,.7-6.2,.1-.4,.1-.7,.2-1.1,.1-.6,.2-1.3,.3-1.9,.5-2.9,1.1-5.9,1.9-8.7l2.4-6.9c.7-1.8,2.3-4.6,2.1-6.5l.5-1.1,1.2-2.2,2.3-4.5c1.6-2.8,3.5-5.5,5.5-7.9,1.3-1.6,2.9-2.9,4.3-4.5h0c.3-.3,7.5-9.3,12.5-11.6,.8-.4,1.6-.6,2.2-.6,1.3-1.4,2.3-3.3,3.3-4.9,0,0,0-.1,.1-.1l.5-1,.3-.8,1.1,.3Z" />
        <path class="cls-37"
            d="M530.7,451.5l.2,.1,2.6-8.1c.3,.5-.1,1.1-.2,1.7l-.3,1.4c-.3,.9-.5,1.8-.8,2.7l-.2,.4-.1,.6q-.2,.6-.1,1.3c-.2,2.5-1.3,5-2.2,7.4s-1.7,4.9-3.1,7.1c-1.2,3.1-3.9,6.4-5.9,8.9,.1-1.6-.2-4.2,.5-5.6l2.8-4.5,6.8-13.4Z" />
        <path class="cls-33"
            d="M507.3,414.9c3.7,2.6,7.5,5.2,10.8,8.3,2.4,1.8,5.2,4.2,7,6.6-.8,6.3-3,12.5-5.8,18.2-2.5,5.3-5.5,10.3-9.8,14.3l-1,.4-5.3-8-7.1-10.9c.7-.7,1.4-1.5,1.9-2.4l.1-.2h.3l.2,.5h.4l.2-.5,.8-1c4.1-5.3,6.2-11.7,7-18.3,.4-2.3,.6-4.6,.3-7Z" />
        <path class="cls-81"
            d="M554.7,514c-1.5,.1-3.1,0-4.7-.2-1.1-.1-2.2-.4-3.2,0-1.1-.2-1.2-.1-2-.9l-.1-.1-.1,.3-.2,.8-.2-.2-.6-.5s-8.1-12.1-9.8-14.7c1.6-1.7,2.2-5,2.8-7.3l1.6-5.1c.1-.3,.1-.5,.2-.8,.9-3.3,1.5-6.6,2.1-10,.3-3.1-1.5-7-2.2-10.1l-1.3-7.8c-.7-4.9-.8-9.8-.9-14.7l.1-6.1c.1,.7,0,1.8,.3,2.5,.5,1.2,1.6,2.4,2.4,3.4l5.4,6.4,5.9,6.8,2.9,3c.2,.2,.7,.7,.7,.9,.1,.4-.1,1.7-.2,2.2-.1,2.2-.3,5.2,0,7.4l.3,.2,.1,4.1c-.2,3.2-.9,6.3-1.2,9.4-.1,1.2-.2,2.4-.3,3.7-.1,1.1-.2,2.2-.5,3.2-.5,2.4-.9,5-1.6,7.3l-.2,.3c-.3,.5-.4,1-.5,1.6-.3,0-.2,0-.4-.1l-.5,1.2c.4,1.3,.8,2.5,1.3,3.8,.7,1.9,1.5,3.9,2.3,5.7,.9,1.5,2,3,2.3,4.4Z" />
        <path class="cls-43"
            d="M554.7,514c-1.5,.1-3.1,0-4.7-.2-1.1-.1-2.2-.4-3.2,0-1.1-.2-1.2-.1-2-.9l-.1-.1-.1,.3-.2,.8-.2-.2-.6-.5s-8.1-12.1-9.8-14.7c1.6-1.7,2.2-5,2.8-7.3l1.6-5.1c.1-.3,.1-.5,.2-.8,.9-3.3,1.5-6.6,2.1-10,.9,1.1,1.2,2.6,1.7,3.9l2.1,6.6,.2,.5c.4,1.2,1.6,3.7,1.5,4.9l2.9,8.9c.4,1.3,.8,2.5,1.3,3.8,.7,1.9,1.5,3.9,2.3,5.7,.8,1.5,1.9,3,2.2,4.4Z" />
        <path class="cls-67"
            d="M571.2,463.7c.3-.1,.2,0,.5-.2l4.3-3.1c.4-.2,.7-.6,1-.8,.5-.3,.5-.4,.8-.9v93.2c-3.4-1.4-6-4.2-8.6-6.6l-5.7-5.4v-.3c-.1-.7-.8-1.6-1.2-2.2l-3.7-5.7-2.8-5-4.7-7-4.3-5.8-.1-.2c1.1-.5,2.1-.1,3.2,0,1.5,.1,3.1,.2,4.7,.2-.4-1.4-1.4-2.9-2-4.2-1.4-3.1-2.6-6.3-3.6-9.5l.5-1.2c.2,.1,.1,0,.4,.1,.1-.5,.3-1.1,.5-1.6l.2-.3c.8-2.4,1.1-4.9,1.6-7.3,.7-2.2,.6-4.6,.8-6.8,.4-3.1,1-6.2,1.2-9.4l.1-.7c.4-.3,.2-.2,.6-.3,2.5-.7,4.6-1.5,6.9-2.5,1.2-.5,2.3-.8,3.4-1.5,.7-.5,1.4-1.1,2.2-1l.3,.5c.4-1.1,.9-2.5,1.8-3.2l1.7-1.3Z" />
        <path class="cls-5"
            d="M571.2,463.7c.3-.1,.2,0,.5-.2l4.3-3.1c.4-.2,.7-.6,1-.8,.5-.3,.5-.4,.8-.9v6.2l-10.6,5.2-.4-.3,.9-1.7c.4-1.1,.9-2.5,1.8-3.2l1.7-1.2Z" />
        <path class="cls-53"
            d="M554.3,473.7l.1-.7c.4-.3,.2-.2,.6-.3,2.5-.7,4.6-1.5,6.9-2.5,1.2-.5,2.3-.8,3.4-1.5,.7-.5,1.4-1.1,2.2-1l.3,.5-.9,1.7c-2.6,2.9-4.5,6.7-6.5,10.1-2.3,3.7-4.8,7.3-6.8,11.2-.6,1.2-1.2,2.5-1.7,3.8-.3,.7-.4,1.7-.9,2.4h-.3c.8-2.4,1.1-4.9,1.6-7.3,.7-2.2,.6-4.6,.8-6.8,.3-3.3,1-6.4,1.2-9.6Z" />
        <path class="cls-41"
            d="M562.8,523.2c1.1-1.1,5.7-5,6-6.1v-.2c1.1-1.2,2.4-2.1,3.6-3.1,1.8-1.5,3.4-2.9,5.6-3.7v26.7l-15.2-13.6Z" />
        <path class="cls-53"
            d="M543.8,513.3c-.7,.5-1.6,.4-2.4,.3-5-.2-9.8-2.3-14.4-4.2-7.3-2.9-26.4-13.6-28.8-15.7-.1-.1-.3-.3-.5-.4-2.3-2-4.5-4.2-6.5-6.5-1.5-1.8-2.8-3.8-4.3-5.5l-.2-.2-2.7-3.8c-1.6-1.7-2.5-3.8-3.5-5.9-1.9-3.9-3.4-7.9-5-12-.9-2.4-2.1-4.8-2.8-7.2-1.1-2.8-1.3-5.6-1.8-8.5-.9-3.5-1.1-7.6-1.5-11.3l.2-1.2,.5-.1c2.2,1,4.1,1.1,6.4,1.2,2.4,.2,4.9,.3,7.3,.2,1.4,0,2.4-.4,3.8-.1,.4,.1,.6,.1,1.1,.1l.1-.3,.3-.3,1,1.6,3,4.9c.4,.6,.8,1.3,1.1,2,.8,.8,1.3,1.7,2,2.7l.3,.4,.7,1.1,6.3,9.8,5.3,8c.9,1.8,2.9,3,3.4,4.9l1,1.4v.1c.5,.5,.9,1,1.2,1.5l6.9,9.8,2.6,3.6,10.2,14.5c1.6,3,9.7,15.1,9.7,15.1Z" />
        <path class="cls-43"
            d="M495.3,487.8c.5,0,.3,0,.7,.1,2.4,.9,4.9,1.3,7.4,1.7,2.7,.4,17,1.5,18.1,2.4-1.4,.2-3,0-4.4-.1-6.5-.3-13.1-1.2-19.4-2.8-.8-.3-1.9-.5-2.4-1.3Z" />
        <path class="cls-33"
            d="M472.7,452.4c2.2,.7,4.4,2.2,6.5,3.2,4,1.9,8.3,3.5,12.5,4.8l7,1.8,7.9,1.5c.5,.1,2,.2,2.4,.5,.6,.4,1.1,1.4,1.6,2,.4,.5,.1,.1,.4,.6,.2,.4,.7,.7,1.1,.9l1,1.4v.3c.3,1.9,2.2,3.7,3.3,5.3,.9,1.3,1.7,2.7,2.6,3.9,.7,.9,1.8,1.9,2,3-.2,.1-.4,.1-.6,.1l-5.1-.9-16.7-2-8.7-1.1c-1.8-.2-4.2-.8-5.8-.3-1.6-1.7-2.5-3.8-3.5-5.9-1.9-3.9-3.4-7.9-5-12-1.1-2.3-2.2-4.7-2.9-7.1Z" />
        <path class="cls-81"
            d="M469.4,432.6l.2-1.2,.5-.1c2.1,1,4.1,1.1,6.4,1.2,2.4,.2,4.9,.3,7.3,.2,1.3,0,2.3-.4,3.8-.1,.4,.1,.6,.1,1.1,.1l.1-.3,.3-.3,4,6.5c.4,.6,.8,1.3,1.1,2,.8,.8,1.4,1.7,2,2.7l.3,.5,7.1,10.9,5.3,8c.9,1.8,2.9,3,3.4,4.9-.4-.2-.8-.6-1.1-.9-.3-.5,0-.1-.4-.6-.5-.6-1-1.6-1.6-2-.4-.3-1.8-.4-2.4-.5l-7.9-1.5-7-1.8c-4.2-1.2-8.5-2.9-12.5-4.8-2.1-1-4.3-2.4-6.5-3.2-1.1-2.8-1.3-5.6-1.8-8.5-1.2-3.5-1.4-7.6-1.7-11.2Z" />
        <path class="cls-33"
            d="M485.8,440.1c1.7,.3,3.2,.3,4.9,.3,1.2,0,2.2-.1,3.3,.2l-.3,.4c-2.5,0-5.3,.2-7.8-.2l-.1-.7Z" />
        <path class="cls-41"
            d="M485.9,440.8c-3.4,.1-6.5-.2-9.8-.6-.9-.1-2.3,0-3-.6l.2-.3,3.4,.2c3,.4,6.1,.1,9.1,.6l.1,.7Z" />
        <path class="cls-43"
            d="M576.6,366.9l.3-.8,1,.2v92.2c-.3,.4-.4,.6-.8,.9-.4,.2-.6,.6-1,.8l-4.3,3.1c-.3,.2-.2,.2-.5,.2l-1.6,1.2c-.9,.7-1.4,2.1-1.8,3.2l-.3-.5c-.8-.1-1.5,.6-2.2,1-1.1,.7-2.2,1-3.4,1.5-2.3,1-4.5,1.8-6.9,2.5-.4,.1-.2,.1-.6,.3l-.1,.7-.1-4.1-.3-.3c-.3-2.2-.1-5.1,0-7.4,0-.5,.3-1.8,.2-2.2-.1-.2-.5-.7-.7-.9l-2.9-2.9-5.9-6.8-5.4-6.4c-.8-1-1.9-2.2-2.4-3.4-.3-.7-.3-1.7-.3-2.5-.1-1.9,.4-4.4,.7-6.2,.7-3.9,1.3-7.9,2.5-11.7l2.4-6.9c.7-1.8,2.3-4.6,2.1-6.5l4-7.8c1.6-2.8,3.5-5.5,5.6-7.9,1.3-1.6,2.9-2.9,4.3-4.5,0,0,17.1-15.6,18.1-17.2l.3-.9Z" />
        <path class="cls-81"
            d="M576.6,366.9l.3-.8,1,.2v92.2c-.3,.4-.4,.6-.8,.9-.4,.2-.6,.6-1,.8l-4.3,3.1c-.3,.2-.2,.2-.5,.2l-1.6,1.2c-.9,.7-1.4,2.1-1.8,3.2l-.3-.5c-.8-.1-1.5,.6-2.2,1-1.1,.7-2.2,1-3.4,1.5-2.3,1-4.5,1.8-6.9,2.5-.4,.1-.2,.1-.6,.3l-.1,.7-.1-4.1c.3-1,.3-2.2,.5-3.2l.9-8.4,3.3-22.4c.7-3.7,1.4-7.5,2.6-11.1,.1-.4,.2-.7,.3-1l.5-2.3c.1-.5,.3-1,.4-1.6l.1-.7,.3-.9,.3-1.2c.2-.7,.5-1.4,.6-2.2l.2-.8c.1-.3,.2-.6,.3-1l.4-1.7v-.2l.4-2.1c.2-.9,.5-1.8,.7-2.6,.1-.3,.1-.6,.2-.9l.2-.6c.1-.3,.1-.6,.2-.9,.1-.4,.2-.7,.3-1.1,.1-.5,.4-.7,.7-1.1l8.2-30.2,.9-2.9-.4-.5,.2-.8Z" />
        <path class="cls-41"
            d="M578,441.6v17c-.3,.4-.4,.6-.8,.9-.4,.2-.6,.6-1,.8l-4.3,3.1c-.3,.2-.2,.2-.5,.2-.8,.1-1.1,.6-1.7,1.1l1.1-2.4,6.1-20c.3-.3,.2-.3,.5-.3l.5,.8,.1-1.2Z" />
        <path class="cls-18"
            d="M576.6,366.9l.3-.8,1,.2v48.7l-12.6,7.8-.3,.2c-1.3,.9-2.4,1.9-3.5,3.1l1.4-5.6,.4-1.7,.3-1c.1-.4,.2-.7,.2-1,.7-4.3,2.2-8.6,3.2-12.8l.1-.5c.2-.6,.3-1.2,.4-1.9l8.2-30.2,.9-2.9-.4-.5,.4-1.1Z" />
        <path class="cls-33"
            d="M544.8,512.9c.8,.8,.9,.8,2,.9l.1,.2,4.3,5.8,4.7,7,2.8,5,3.7,5.7c.4,.7,1.1,1.5,1.2,2.2-1.6-.6-3.4-3.8-4.3-5.2l-4.5-6.6c-3.3-4.6-6.6-9.5-10.2-13.9l.2-1.1Z" />
        <path class="cls-53"
            d="M578,552v13.8h-113.1c-.5-.1-1-.2-1.5-.3h-.1c-1.2-.2-2.4-.5-3.6-.8-3-.9-6.2-2.6-8.9-4.1-.6-.3-1.1-.5-1.6-.8-.1-.1-.2-.1-.3-.2h-.2c-.5-.2-.9-.5-1.3-.8-1.6-.9-3.1-1.9-4.7-3.1-.8-.6-1.6-1.2-2.4-1.8-1.4-1-2.7-2.1-4.1-3.1,0,0-.1,0-.1-.1-2.9-2.3-5.7-4.6-8.3-7.3-3.7-3.7-7.2-7.9-11.2-11.5-.9-.8-1.7-1.5-2.6-2.3-.8-.6-1.3-1.3-1.9-2.1l4.5-2.7,.6-.3h0l9-4.9c.7-.4,1.4-.7,2.1-1.1,3.1-1.5,6.4-3,9.7-4.2l2.4-.9c.7-.3,1.3-.6,2-.8,.3-.1,.7-.3,1-.4h.1c1.2-.4,2.5-.8,3.8-1.1,2.6-.7,5.2-1.2,7.7-1.7,2.7-.6,5.4-.9,8.2-1.1,.8-.1,1.6-.2,2.4-.3h.6c1.7-.2,3.5-.3,5.2-.3h.3c4.5-.1,9.1,.2,13.5,.6,4.2,.4,8.4,.9,12.6,1.5,2.6,.4,5.3,.9,7.9,1.5,5.6,1.3,11.2,2.9,16.6,5,5.3,2,10.6,4.5,15.6,7.2,1.3,.7,2.5,1.4,3.7,2.1l6.9,4.5,10,6.7c1.5,1.1,3.2,2.9,5.1,3.3l5.7,5.4c2.7,2.3,5.3,5.1,8.7,6.5Z" />
        <path class="cls-81"
            d="M468.4,532.6c1.3,0,2.7,0,3.9,.3,.9,.2,1.8,0,2.7,.2,.8,.2,1.7-.2,2.4,.2,.8,0,1.4,0,2.2,.2l.6,.1c.1,.8-.5,1.6-.9,2.3-1.4,2.4-3.1,4.6-4.9,6.7-4.3,5.2-9.7,10.4-15.6,13.7l-4.2,2.2c-1.3,.6-2.7,1.1-3.9,2-2.9-1.4-5.5-3-8.1-4.9,2-.8,3.3-2,5-3.1,5.4-3.5,11.2-7.5,15.7-12.3,1.4-1.5,2.7-3,3.8-4.7,.3-.5,1-1.4,1.2-1.9,.1-.3,.1-.7,.1-1Z" />
        <path class="cls-43"
            d="M416.5,524.8l9.6-5.3c4.5-2.3,9.5-4.5,14.3-6.2,5.4,5.2,10,10.3,12.2,17.6-2.3-.3-4.9-.3-7.2-.3l.2,.3c4.8,.6,9.7,.4,14.6,1,2.7,.4,5.6-.2,8.3,.6,0,.3,.1,.7,0,.9-.1,.6-.8,1.4-1.2,1.9-1.2,1.7-2.4,3.2-3.8,4.7-4.5,4.7-10.3,8.8-15.7,12.3-1.7,1.1-3,2.3-5,3.1-5.2-3.9-10.2-7.7-14.9-12.3-4.6-4.5-8.8-9.8-13.8-13.8-.8-.6-1.3-1.3-1.9-2.1l4.3-2.4Z" />
        <path class="cls-33"
            d="M416.5,524.8l9.6-5.3c4.5-2.3,9.5-4.5,14.3-6.2,5.4,5.2,10,10.3,12.2,17.6-2.3-.3-4.9-.3-7.2-.3l-31.4-1.2c-.8-.6-1.3-1.3-1.9-2.1l4.4-2.5Z" />
        <path class="cls-43"
            d="M578,552v2c-.7-.5-1.7-.9-2.5-1.2-4.3-2-8.9-3.4-13.4-4.9l-19-5.5c-.9-.2-1.9-.2-2.8-.4-.9-.3-1.8-.8-2.8-1-3.7-1-7.6-1.7-11.4-2.4-1.3-.2-2.6-.5-3.9-.7l-15.2-2.6-1.2-.1-2.3-.2h-.3l-5.9-.6-1.3-.1c-.4-.1-.9-.1-1.3-.1-3-.3-6-.7-9-.8l-5.1-.4-8.4-.6c-2.2-.3-4.3-.4-6.5-.5-.8,0-1.7-.1-2.5-.1-1,0-2-.1-2.9-.1-2.5-.1-5-.2-7.5-.4-1-3.6-2.7-6.7-4.8-9.5-1.2-1.7-2.6-3.3-4.1-4.8l-.6-.6-.1-.1c-.6-.7-1.3-1.3-2-2l-.7-.7c.7-.3,1.3-.6,2-.8,.3-.1,.7-.3,1-.4h.1c1.2-.4,2.5-.8,3.8-1.1,2.6-.7,5.2-1.2,7.7-1.7,2.7-.6,5.4-.9,8.2-1.1,.8-.1,1.6-.2,2.4-.3h.6c1.7-.2,3.5-.3,5.2-.3h.3c4.5-.1,9.1,.2,13.5,.6,4.2,.4,17.8,2.5,20.5,3.1,5.6,1.3,11.2,2.9,16.6,5,5.3,2,10.6,4.5,15.6,7.2,1.3,.7,2.5,1.4,3.7,2.1l6.9,4.5,10,6.7c1.5,1.1,3.2,2.9,5.1,3.3l5.7,5.4c2.6,2,5.2,4.8,8.6,6.2Z" />
        <path class="cls-43"
            d="M455.1,509.3c2.7-.6,5.4-.9,8.2-1.1l.3,.3c1.4,1.2,3.2,2.1,4.6,3.2,4.3,3.3,8.5,7.6,11.7,12.1,2.1,3,3.4,6.3,5.6,9.2l.1,.1-5.1-.4-8.4-.6c-6.4-.8-13-.6-19.5-1.2-2.2-7.3-6.8-12.4-12.2-17.6,4.5-2,9.8-3,14.7-4Z" />
        <path class="cls-67"
            d="M455.1,509.3c2.7-.6,5.4-.9,8.2-1.1l.3,.3c1.4,1.2,3.2,2.1,4.6,3.2,4.3,3.3,8.5,7.6,11.7,12.1,2.1,3,3.4,6.3,5.6,9.2l.1,.1-5.1-.4c-3.9-4-7.2-8.5-11.2-12.5-2.8-2.8-5.9-5.5-9.1-7.7l-5.1-3.2Z" />
    </g>
    <path class="cls-58"
        d="M309.9,476.5l.4,.6c-1.3,2.2-2.1,4.4-4.2,6.2-1.4,1.2-3.4,2.7-5,3.4l.1-.5h.3l.2-.3-1.2,.2c4.3-2.2,7.4-5.2,9.4-9.6Z" />
    <path class="cls-58"
        d="M286.6,489.9c.2,.2,.3,.5,.5,.7-2.2,1.2-4.7,2.9-6,5-.5,.7-.7,1.7-1.3,2.3-.7,.6-.8,1.3-1.5,1.9l.4-1.6c1.1-3.7,4.5-6.6,7.9-8.3Z" />
    <path class="cls-82"
        d="M300.5,486.2l1.2-.2-.2,.3h-.3l-.1,.5c-3,1.9-6.6,2-10,2.7-1.4,.3-2.7,.8-4.1,1.2-.2-.2-.3-.5-.5-.7,2.8-1.7,6.2-1.6,9.4-2.3,1.6-.4,3.1-1,4.6-1.5Z" />
    <path class="cls-14"
        d="M295.4,439.4h.2c2.6,.3,5.5,3.8,6.9,5.7-1.7-.1-3.2-.5-4.8-1l-3.7-.7c-1.1-.2-2.4-.4-3.1-1.4,.1-.1,.1-.3,.2-.4,.3-.2,1.1-.3,1.6-.4,1.3-.3,2.5-.5,3.7-.9v-.1c-.4-.2-.7-.3-.9-.7l-.1-.1Z" />
    <path class="cls-82"
        d="M278,509.8c.2,.2,.4,.4,.7,.5-.4,.2-.5,.6-.9,.8-.4,.2-1.2,.1-1.7,0-1.3-.1-2.6-.2-3.9,0-4.9,.6-10.3,3.2-13.5,7.1-2,2.5-3.5,5.7-4.4,8.7l-1.7,7c-.2,.5-.3,.9-.7,1.3h-.4c1.1-3,1.3-6.1,2.1-9.2,.5-1.9,1.5-4.1,2.5-5.9,3.2-5.3,9.6-9.5,15.8-10,1.3-.1,2.5-.1,3.8-.1,.6,0,1.4,.1,2-.1l.3-.1Z" />
    <path class="cls-71"
        d="M294.4,422.2c1.1-1,2.4-1.8,3.7-2.7,1.6-1.2,3.1-2.6,4.9-3.4-.9,1.7-1.9,3.3-2.6,5-.6,1.5-1.1,3.1-1.6,4.7-1.4,3.9-2.8,8-3.7,12.1-.9-.5-1.6-1.2-2.3-1.9-1.1-.9-2.2-1.6-3.4-2.3-2-1.2-4.7-1.8-6.3-3.5l6.3-4.3c1.7-1.2,3.5-2.3,5-3.7Z" />
    <path class="cls-25"
        d="M310.3,477.1c.8-.5,.7-1.6,1.7-1.9v.8c.1,.5,.2,.9,.2,1.4v.2l.2-1.2c1.4,9.4,2.3,18.8,1.9,28.4-.6,13.5-3.8,27-8,39.9-.6-.2-1.2-.9-1.6-1.4-1.3-1.2-2.5-2.6-4-3.6l-.3-.2c-5.5-3.8-12.2-6-18.8-6.4-8.7-.5-17.4,1.3-26,1.4-.6,0-1.8,.1-2.3-.1-.2-.1-.6-.5-.7-.7l1.7-7c.9-3,2.4-6.2,4.4-8.7,3.2-3.9,8.6-6.5,13.5-7.1,1.3-.2,2.6,0,3.9,0,.5,0,1.3,.2,1.7,0,.3-.2,.4-.6,.9-.8-.3-.1-.5-.3-.7-.5-.4-2.3-.8-4.8-.5-7.2,.1-.9,.5-1.9,.7-2.8,.8-.6,.9-1.3,1.5-1.9,.5-.7,.8-1.6,1.3-2.3,1.4-2.1,3.8-3.8,6-5,1.4-.4,2.7-.9,4.1-1.2,3.4-.7,7-.7,10-2.7,1.6-.7,3.7-2.3,5-3.4,2.1-1.6,2.9-3.8,4.2-6Z" />
    <path class="cls-69"
        d="M278.2,499.8c.8-.6,.9-1.3,1.5-1.9-1.1,3.1-1.4,5.8-1.2,9.1,.1,1.1,.3,2.3,.1,3.3-.3-.1-.5-.3-.7-.5-.4-2.3-.8-4.8-.5-7.2,.2-.9,.6-1.9,.8-2.8Z" />
    <path class="cls-19"
        d="M266.4,438.6c1.4-.6,2.8-1.5,4.2-2.3,4-2.3,8-4.9,12.5-6.1,1.5,1.7,4.3,2.3,6.3,3.5,1.2,.7,2.3,1.5,3.4,2.3,.8,.6,1.4,1.4,2.3,1.9v1.1c-.5,.3-1.7,.2-2.3,.3-.9,.1-1.9,.4-2.8,.7-5.6,2-9.6,6.6-12.3,11.7-.8,1.6-1.7,3.5-2.1,5.3l-.1,.5c-.6,3.6-1.2,6.9-1.1,10.6,0,2.1,.2,4.1,.5,6.2l.5,3.5c.1,.4,.2,1.1,.2,1.4-.2,1-1.1,2-1.5,2.9-.3,.7-.6,1.5-1,2.1-3.6-5.9-10.1-9.8-15.8-13.4-1.5-1-3.6-2.5-5.4-2.9-.7-.2-1.2-.1-1.8,.3-1.9,1.2-3.6,2.9-5.3,4.3-4.1,3.7-8,7.9-11.8,11.9-7,7.4-13.1,15.3-19.3,23.4l-14.2,18.9-21.6,33.8-16,26c-2.8,4.3-5.5,8.9-8.7,12.9,.6-1.9,1.6-3.6,2.4-5.4,.6-.3,4.1-8.1,4.6-9.2l8.9-17.2,3.8-7,3.9-6.3,8.4-14.5,6.1-10.4,12.3-23.8,8.8-14.6,5-7.1,15.5-17.9c1.6-1.8,3.4-3.4,5.1-5.1,5.9-5.8,12.1-11,18.8-15.9,3.1-2.2,6.3-4.5,9.6-6.4Z" />
    <path class="cls-7"
        d="M634.9,364.9v-.2c-2.7-42.1-14.3-81.7-32.8-117.1-9-17.3-19.8-33.5-31.9-48.5-.2-.3-.4-.5-.7-.8-.9-1.1-1.8-2.2-2.7-3.2-.7-.8-1.4-1.7-2.1-2.5-.1-.2-.3-.3-.4-.5-.6-.7-1.2-1.4-1.9-2.1-.8-.9-1.7-1.9-2.5-2.8-1-1.2-2.1-2.3-3.2-3.5-2.8-3-5.7-6-8.6-8.9-8.9-8.8-18.4-17-28.3-24.7-4.2-3.2-8.5-6.3-12.9-9.3-47.2-32.2-104.3-51-165.7-51-85.3,0-162.2,36.3-216,94.3l-.3,.3c-1.7,1.8-3.3,3.6-4.9,5.4-.5,.5-.9,1-1.4,1.6s-1,1.1-1.4,1.7c-.1,.2-.3,.3-.4,.5l-.1,.1c-.9,1-1.8,2.1-2.7,3.2-2.8,3.4-5.5,6.9-8.2,10.4l-.1,.1c-3.1,4.1-6.1,8.3-8.9,12.5h0c-1.6,2.4-3.2,4.8-4.7,7.3-1.1,1.7-2.1,3.4-3.1,5.1-.3,.5-.6,.9-.8,1.4-1.1,1.8-2.2,3.7-3.2,5.5-.3,.5-.5,1-.8,1.4,0,.1-.1,.1-.1,.2l-.3,.6c-.9,1.7-1.9,3.4-2.8,5.1-.4,.7-.7,1.4-1.1,2.1-.1,.1-.1,.2-.2,.4-.1,.1-.1,.2-.2,.3-8.2,15.8-15,32.5-20.2,49.8-.1,.3-.2,.6-.3,.8-.5,1.8-1,3.5-1.5,5.3-7,25.2-10.8,51.7-10.8,79.1s3.7,53.9,10.8,79.1c15.7,56.5,47.9,106.3,91.1,143.6h0c17,14.7,35.7,27.5,55.8,38.1,40.9,21.5,87.4,33.6,136.7,33.6s95.9-12.1,136.7-33.6c9.5-5,18.8-10.5,27.7-16.5,25.5-17.2,48.2-38.4,67.2-62.5,1.8-2.3,3.5-4.6,5.2-6.9,31.4-42.6,51.6-93.7,56.4-149.1,.8-8.6,1.1-17.3,1.1-26,.1-6.5-.1-12.9-.5-19.2Zm-56.9,66.4c-2.1,10.5-5,20.8-8.4,30.8-.6,1.8-1.3,3.6-2,5.4h0c-.3,.9-.7,1.8-1,2.7-2.2,5.8-4.7,11.5-7.4,17.1-2.7,5.7-5.7,11.3-8.8,16.7-1.8,3-3.6,6-5.5,9,0,0-.1,.1-.1,.2h0c-.1,.2-.3,.4-.4,.6-2.1,3.2-4.2,6.4-6.5,9.5-3.7,5.2-7.7,10.3-11.8,15.2-2.7,3.2-5.4,6.2-8.2,9.3h-.1s0,.1-.1,.1c-1.2,1.3-2.4,2.6-3.7,3.9-2.8,2.8-5.6,5.6-8.5,8.3-1.7,1.5-3.4,3.1-5,4.5-.4,.4-.8,.7-1.2,1.1-3,2.6-6.1,5.2-9.3,7.7-3,2.3-6,4.6-9.1,6.8h0c-10.2,7.2-21,13.7-32.3,19.3-3.4,1.7-6.8,3.3-10.2,4.8-11.9,5.2-24.2,9.5-37,12.7-.2,0-.3,.1-.5,.1h-.1c-6.1,1.5-12.3,2.8-18.5,3.9-.3,.1-.7,.1-1,.2-12.9,2.1-26.2,3.2-39.7,3.2-63.1,0-120.5-24.2-163.6-63.8-1-1-2-1.9-3-2.8,0,0,0-.1-.1-.1h0c-.7-.6-1.3-1.3-2-1.9-.7-.7-1.4-1.4-2.1-2-2-2.1-4.1-4.1-6-6.3-2-2.1-3.9-4.3-5.8-6.5-2.5-2.9-5-5.9-7.4-9-1.2-1.5-2.4-3.1-3.5-4.6-2.9-3.9-5.7-7.8-8.3-11.9-.5-.8-1-1.6-1.5-2.3h0c-.5-.9-1.1-1.7-1.6-2.5s-1-1.7-1.5-2.5c-1.5-2.5-3-5-4.4-7.6-1.9-3.4-3.7-6.8-5.5-10.3-.9-1.8-1.7-3.5-2.5-5.3-2.8-6.1-5.4-12.3-7.8-18.6,0-.1-.1-.3-.2-.4-.7-1.8-1.3-3.7-2-5.6-8.2-24.3-12.7-50.4-12.7-77.5,0-5.9,.2-11.7,.6-17.5,.5-6.6,1.2-13.1,2.2-19.5,2.1-13.9,5.5-27.5,9.9-40.5,.6-1.9,1.3-3.7,2-5.6,1.2-3.2,2.4-6.4,3.8-9.6,.2-.4,.4-.9,.5-1.3,.1-.3,.2-.6,.4-.9,.7-1.6,1.4-3.2,2.1-4.9,.1-.1,.1-.2,.2-.3,.3-.7,.6-1.3,.9-2,.5-1.1,1-2.1,1.5-3.2h0c.3-.7,.7-1.4,1-2.1,.6-1.1,1.1-2.2,1.7-3.3,.1-.2,.2-.5,.4-.7h0c0-.1,.1-.2,.1-.2h0c.1-.1,.1-.3,.2-.4,.5-1,1-2,1.6-2.9,.3-.6,.6-1.2,1-1.8h0c.2-.3,.3-.6,.5-.9,1.4-2.5,2.9-5.1,4.4-7.6,.5-.8,1-1.7,1.5-2.5,1-1.6,2.1-3.3,3.1-4.9,2.7-4,5.5-8,8.3-11.9,1.2-1.5,2.3-3.1,3.5-4.6,.8-1,1.6-2.1,2.5-3.1h0c.4-.5,.8-1,1.2-1.4,.4-.5,.8-.9,1.2-1.4h0c.3-.3,.6-.7,.9-1h0c.3-.3,.6-.7,.8-1,.8-.9,1.5-1.7,2.3-2.6,.5-.6,1.1-1.2,1.6-1.8,.3-.3,.6-.6,.8-.9,.3-.3,.5-.6,.8-.9h0c.3-.4,.7-.8,1-1.1,2-2.1,4-4.2,6-6.3,1.9-1.9,3.9-3.9,5.9-5.7,21.9-20.5,47.7-36.9,76-48.1,7.6-3,15.4-5.6,23.3-7.9,14.6-4.1,29.8-6.9,45.4-8.1,.2,0,.5,0,.7-.1,6.4-.5,12.8-.8,19.3-.8,58.9,0,112.8,21.1,154.7,56,1.7,1.4,3.3,2.8,5,4.3,3.6,3.2,7.1,6.5,10.5,9.9,3.7,3.7,7.4,7.6,10.9,11.5,.9,1.1,1.9,2.2,2.8,3.2,1,1.2,2,2.4,3,3.6,.7,.8,1.3,1.6,2,2.5,.1,.1,.2,.2,.2,.3,.7,.8,1.3,1.7,2,2.5,6.4,8.3,12.3,17,17.6,26.2,5.9,10.2,11.1,20.8,15.5,31.9,.2,.5,.4,1,.6,1.5,2.9,7.3,5.4,14.8,7.5,22.4v.1h0c2.3,8.1,4.2,16.4,5.6,24.8,.9,5.5,1.7,11,2.2,16.6,.8,7.9,1.2,16,1.2,24.2,.3,16.5-1.4,32.6-4.5,48.2Z" />
    <path class="cls-8" d="M505.5,641c-.1,.7,.2,3.2-.3,3.9h-27.4c9.5-5,18.8-10.5,27.7-16.5v12.6h0Z" />
    <path class="cls-14"
        d="M252.7,533.9c.1,.1,.5,.6,.7,.7,.5,.2,1.7,.1,2.3,.1,8.7-.2,17.4-2,26-1.4,6.7,.4,13.3,2.6,18.8,6.4l.3,.2c1.4,1,2.7,2.4,4,3.6,.4,.4,1,1.2,1.6,1.4-.8,2.8-1.9,5.3-3,8-.9,2.3-1.8,4.7-2.8,6.9-.5,1-1,1.8-1.5,2.8-.5,.9-.8,2-1.3,2.9-.4,.8-1.1,1.5-1.5,2.3-1.2,2.2-2.2,4.5-3.5,6.6l-5.2,8.1c-.1-1.3-.2-2.5-.8-3.8-.9-2-2.6-2.9-4.5-3.6-3.4-1.3-7.1-2-10.7-2.8-10.9-2.3-21.8-3.4-32.9-3.4-3.3,0-6.7,0-10,.3-4.8,.4-9.6,1.2-14.3,2-6,1-12,2.2-17.6,4.7,1.3-1.4,3-2.6,4.4-3.9,4.8-4.3,9.8-8,15.2-11.5,4.3-2.7,8.7-5.3,13.6-6.9,1.5-.5,3-.7,4.6-1,2.3-.5,4.9-.9,7-1.8,4.5-1.9,6.7-6.5,8.2-10.8,.5-1.5,.9-3.6,1.8-4.9h.4c.4-.3,.5-.7,.7-1.2Z" />
    <path class="cls-46" d="M494.2,558.5c1.2-.9,.7,3.2,.7,3.2-.3-.8,0-1.6-.2-2.3-.1-.3-.4-.6-.5-.9Z" />
    <rect class="cls-4" x="109.8" y="177.7" width="10.1" height="19" />
    <path class="cls-6"
        d="M582.8,383.1c0,16.5-1.7,32.7-4.8,48.3-2.1,10.5-5,20.8-8.4,30.8-.6,1.8-1.3,3.6-2,5.4-.3,.9-.7,1.8-1,2.7-2.2,5.8-4.7,11.5-7.4,17.1-2.7,5.7-5.7,11.3-8.8,16.7-1.8,3-3.6,6-5.5,9,0,.1-.1,.1-.1,.2-.1,.2-.3,.4-.4,.6l-.6-.5c-.7,.5-13.6,20.3-17.7,25.3-2.7,3.2-5.4,6.2-8.2,9.3h-.1s0,.1-.1,.1c-1.2,1.3-2.4,2.6-3.7,3.9-2.8,2.8-5.6,5.6-8.5,8.3-1.7,1.5-3.4,3.1-5,4.5-.4,.4-.8,.7-1.2,1.1-3,2.6-6.1,5.2-9.3,7.7-3,2.3-6,4.6-9.1,6.8h0c-10.2,7.2-21,13.7-32.3,19.3-3.4,1.7-6.8,3.3-10.2,4.8-11.9,5.2-24.2,9.5-37,12.7-.2,0-.3,.1-.5,.1h-.1c-6.1,1.5-12.3,2.8-18.5,3.9-.3,.1-.7,.1-1,.2-12.9,2.1-26.2,3.2-39.7,3.2-63.1,0-120.5-24.2-163.6-63.8-1-1-2-1.9-3-2.8,0,0-.1,0-.1-.1h0c-.7-.6-1.3-1.3-2-1.9-.7-.7-1.4-1.4-2.1-2-2-2-4.1-4.1-6-6.3-2-2.1-3.9-4.3-5.8-6.5-2.5-2.9-5-5.9-7.4-9-1.2-1.5-2.4-3.1-3.5-4.6-2.9-3.9-5.7-7.8-8.3-11.9-.5-.8-1-1.6-1.5-2.3h0c-.5-.9-1.1-1.7-1.6-2.5s-1-1.7-1.5-2.5c-1.5-2.5-3-5-4.4-7.6-1.9-3.4-3.7-6.8-5.5-10.3-.9-1.8-1.7-3.5-2.5-5.3-2.8-6.1-5.4-12.3-7.8-18.6,0-.1-.1-.3-.2-.4-.7-1.8-1.3-3.7-2-5.6-8.2-24.3-12.7-50.4-12.7-77.5,0-5.9,.2-11.7,.6-17.5,.5-6.6,1.2-13.1,2.2-19.5,2.1-13.9,5.5-27.5,9.9-40.5,.6-1.9,1.3-3.7,2-5.6,1.2-3.2,2.4-6.4,3.8-9.6,.2-.4,.4-.9,.5-1.3,.1-.3,.2-.6,.4-.9,.7-1.6,1.4-3.2,2.1-4.9,.1-.1,.1-.2,.2-.3,.3-.7,.6-1.3,.9-2,.5-1.1,1-2.1,1.5-3.2v-.1c.3-.7,.7-1.4,1-2.1,.6-1.1,1.1-2.2,1.7-3.3,.1-.2,.2-.5,.4-.7h0c0-.1,.1-.2,.1-.3,.1-.1,.1-.3,.2-.4,.5-1,1-2,1.6-2.9,.3-.6,.6-1.2,1-1.8h0c.2-.3,.3-.6,.5-.9,1.4-2.5,2.9-5.1,4.4-7.6,.5-.8,1-1.7,1.5-2.5,1-1.6,2.1-3.3,3.1-4.9,2.7-4,5.5-8,8.3-11.9,1.2-1.5,2.3-3.1,3.5-4.6,.8-1,1.6-2.1,2.5-3.1h0c.8-1,1.6-1.9,2.3-2.8h0c.3-.3,.6-.7,.9-1h0c.3-.3,.6-.7,.8-1,.8-.9,1.5-1.7,2.3-2.6,1.1-1.2,2.2-2.5,3.3-3.7h0c.3-.4,.7-.8,1-1.1,2-2.1,4-4.2,6-6.3,1.9-1.9,3.9-3.9,5.9-5.7,21.9-20.5,47.7-36.9,76-48.1,7.6-3,15.4-5.6,23.3-7.9,14.6-4.1,29.8-6.9,45.4-8.1,.2,0,.5,0,.7-.1,6.4-.5,12.8-.8,19.3-.8,58.9,0,112.8,21.1,154.7,56,1.7,1.4,3.3,2.8,5,4.3,3.6,3.2,7.1,6.5,10.5,9.9,3.7,3.7,7.4,7.6,10.9,11.5,.9,1.1,1.9,2.2,2.8,3.2,1,1.2,2,2.4,3,3.6,.7,.8,1.3,1.6,2,2.5,.1,.1,.2,.2,.2,.3,.7,.8,1.3,1.7,2,2.5,6.4,8.3,12.3,17,17.6,26.2,5.9,10.2,11.1,20.8,15.5,31.9,.2,.5,.4,1,.6,1.5,2.9,7.3,5.4,14.8,7.5,22.4v.1c2.3,8.1,4.2,16.4,5.6,24.8,.9,5.5,1.7,11,2.2,16.6,1.1,8,1.5,16.1,1.5,24.3Z" />
    <g>
        <g>
            <path class="cls-57"
                d="M636.8,488.5c1.2-1.5,2.5-2.9,3.6-4.5,1.7-2.6,3-5.3,4.2-8.2l.5-1.2c1-2.1,1.3-4.7,1.7-7,.6-3.2,1.1-6.3,1.3-9.5,.1-1.5,.3-3,0-4.5v-2.1c0-6.9-1.6-13.9-3.8-20.5-1.9-5.7-4.2-11.4-7.3-16.6-4-6.9-9.2-13.3-14.6-19.2l-7.1-7.6-8.9-8.5c-12-12-25.7-22.1-41.2-29.1l-13.7-5.5c-15.7-6-31.7-12.4-44.6-23.6-3.6-3.1-7-6.6-10.2-10.2-3.3-3.7-6.3-7.5-9.9-10.9-3.4-3.3-7.3-6.6-12.3-6.6h-.9c-3.6,5.5-23.4,25.1-27.7,30l-3.2-3.8,12.3-13.1,14.5-16.4,7.9-8.2,13.8-15.1,6.6-7.3c1.1-1.2,2.2-2.3,3.1-3.7l37.2-44.4,30.7-34.1c1.7-1.7,3.1-3.6,4.7-5.4l18.6-20.7,4-4.7c.2-.3,.7-.8,.9-1.1,.2-.5-.1-1.3,0-1.8,.1-.3,.4-.7,.5-1,.8-1.3,1.6-2.1,3.1-2.4l1.6,.2c1.2,.3,1.8,1.1,2.5,2.1-.2,1.7-1.4,3.1-2.3,4.5l-1.1,.8c-.7-.2-1-.7-1.8-.6l-.2,.2-1.4,1.5c-1.2,1.8-3,3.3-4.5,5l-6.6,8.2-7.5,8.9c-1,1.3-5.7,7.6-6.5,8-.8,.2-1.2,.8-1.8,1.4l-3.8,4.2-13.2,14.8-9,10.6c-1.1,1.3-2.2,2.6-3.3,3.9l-21.8,26.8-9,11.5c-1.2,1.4-2.4,3.1-3.7,4.4l-.1,.1c-.1,.4,0,.6-.2,1-.5,1-1.8,1.9-2.6,2.6l-4.4,4c2.2,2.4,4.6,4.3,7,6.5l18.2,15.7,6.5,5.1,18.5,12.3,10.1,6.3,12.2,6.5,7.9,4.6,4.4,2.3,8.4,4.9c3.3,1.9,6.6,3.7,9.7,5.8,7.7,5.2,15,11.2,21.5,17.9,2.7,2.8,5.1,5.9,7.6,8.9l1.9,2.2,4.8,6.5,5.8,7.8,5.6,8.6c4,6.1,8,12.2,11.4,18.7,.3,.6,.5,1.3,.8,1.9l3.4,6.1,7.6,16.4c-.9,3.4-2.3,6.7-3.6,9.9l-4.9,11.8-7.2,16.1c-1.4,3.1-2.9,6.2-4.5,9.1-.6,1.1-1.4,2.1-2.1,3.2-.8,1.1-1.6,2.3-2.5,3.2-3.1,3.1-7.5,5.4-11.6,6.1Z" />
            <path class="cls-73"
                d="M673,429.2l-7.6-16.4-3.4-6.1c-.3-.6-.5-1.3-.8-1.9-3.4-6.5-7.4-12.5-11.4-18.7l-5.6-8.6-5.8-7.8-4.8-6.5-1.9-2.2c-2.5-3-4.9-6.1-7.6-8.9-6.5-6.7-13.8-12.7-21.5-17.9-3.1-2.1-6.5-4-9.7-5.8l-8.4-4.9-4.4-2.3-7.9-4.6-12.2-6.5-10.1-6.3-18.6-12.4-6.5-5.1-18.2-15.7c-2.3-2.2-4.8-4.1-7-6.5l4.4-4c.8-.7,2.1-1.6,2.6-2.6,.2-.4,.2-.6,.2-1l.1-.1,.2,.1,12.7-11.7,26-28.7,18.1-23.4c.2-.8,1.2-2,1.6-2.7,2.3-3.5,5.2-6.9,7-10.6,.8-.3,5.5-6.7,6.5-8l7.5-8.9,6.6-8.2c1.4-1.7,3.2-3.2,4.5-5l9.7,39c3.8,11.8,8.5,23.2,13.4,34.5l4.8,10.2c.5,.9,1,2.1,1.6,3l7.2,14.1,9.7,18.6,4.8,8.5,5.3,10.1c6.4,11.7,13.3,23.3,18,35.8,3.2,8.6,4.9,17.3,6,26.3l.7,8.7c.1,1.3-.1,3.3,.4,4.5,.2,1.9,.3,3.9,.3,5.8,0,1.1-.1,2.2-.1,3.3s.2,2.1,.3,3.1c.1,1.4,.1,2.7,.3,4,.3,1.6,.1,3.3,.1,4.9l-.3,11.3c-.1,1.7-.4,3.6-.1,5.3,0,1-.1,1.9-.4,2.9l-2,1.6c.5,2.3,.6,4.5,.4,6.8-.2,1.3-.4,2.5-.7,3.8-.3,1.2-.8,2.3-1.1,3.4-.3,1-.2,2.4-.8,3.3l-2.1,7.1Z" />
            <path class="cls-74"
                d="M563.4,192.6c.4,.9,.1,2.5,.2,3.5l1.9,22,1.9,11.6c1.1,6.7,2.2,13.3,3.9,19.8,.4,1.5,1,2.9,1.4,4.4,3.3,11.6,8,22.5,13.3,33.4,.9,2.6,2.7,5.2,4.1,7.7,6.4,11.7,13.7,22.9,21.1,34l6.4,9.3-2.2-1.7c-.9-.7-1.7-1.8-2.6-2.5-.3-.2-.5-.5-.8-.7-.5-.3-.7-.9-1.1-1.2-.7-.6-1.2-1.4-1.9-2-.3-.3-.6-.6-.9-.9-.5-.4-1-.9-1.5-1.3l-1-.7-1.4-1.3-1.2-1-1-.9c-.2-.2-.5-.4-.7-.6-1.2-.8-2.4-1.6-3.5-2.6-.8-.7-1.5-1.5-2.3-2.1l-.3-.2c-1-.8-2.2-1.4-3.2-2.1l-10.7-8.4-6.5-5.6c-1.2-1-2.4-1.8-3.6-2.8l-3.9-3.7c-1.1-1-2.4-1.9-3.5-2.9s-2-2.2-3.1-3.1c-.9-.8-1.8-1.4-2.7-2.2-1.4-1.3-2.6-2.8-4-4.1l-11.7-12-6.1-7.2-11-13.9-2.9-3.9c-.3-.5-.8-1.6-1.3-2-.1-.1-.3-.1-.5-.2l-1.1,.8,26.3-29,17.7-23.7Z" />
            <path class="cls-22"
                d="M673,429.2l-7.6-16.4-3.4-6.1c-.3-.6-.5-1.3-.8-1.9-3.4-6.5-7.4-12.5-11.4-18.7l-5.6-8.6-5.8-7.8-4.8-6.5-1.9-2.2c-2.5-3-4.9-6.1-7.6-8.9-6.5-6.7-13.8-12.7-21.5-17.9-3.1-2.1-6.5-4-9.7-5.8l-8.4-4.9-4.4-2.3-7.9-4.6-12.2-6.5-10.1-6.3-18.6-12.4-6.5-5.1-18.2-15.7c-2.3-2.2-4.8-4.1-7-6.5l4.4-4c.8-.7,2.1-1.6,2.6-2.6,.2-.4,.2-.6,.2-1l.1-.1,.2,.1,12.7-11.7,1.1-.8c.2,.1,.4,0,.5,.2,.4,.3,.9,1.5,1.3,2l2.9,3.9,10.9,13.6,6,7.1,11.6,11.9c1.3,1.3,2.6,2.8,4,4.1,.9,.8,1.8,1.4,2.7,2.2,1.1,1,2,2.1,3.1,3.1s2.4,1.9,3.5,2.9l3.9,3.7c1.1,1,2.4,1.8,3.6,2.8l6.4,5.5,10.6,8.3c1,.8,2.2,1.4,3.2,2.1l.3,.2c.8,.7,1.5,1.4,2.4,2.1,1.1,.9,2.4,1.7,3.5,2.6,.3,.2,.5,.3,.7,.6l1,.9,1.2,1,1.4,1.3,1,.7c.5,.4,1,.9,1.5,1.3,.4,.3,.6,.6,.9,.9,.7,.6,1.3,1.3,1.9,2,.4,.4,.7,.9,1.1,1.2,.3,.2,.5,.5,.8,.7,1,.6,1.7,1.8,2.6,2.5l2.2,1.7c1.7,2.4,3.7,4.5,5.5,6.9,2,2.6,3.7,5.4,5.4,8.1,.5,.9,1.5,1.7,1.9,2.6,.1,.3,.2,.4,.4,.7h.2c-.7-.9-1-1.9-1.4-2.8-.5-1.1-1.1-2.1-1.5-3.2-1.2-3.3-1.8-7.1-2.5-10.6l-3.3-15.1-3.6-13.2-1.5-5.1c-.3-.7-.4-1.5-.8-2.2-.5-2.1-1.4-4.1-2.1-6.2l-3.5-11.6-2.2-6.9c-2.9-10.8-5.2-21.7-6.9-32.8l-2.4-19.1c-.8-6.6-2.1-13.2-2.3-19.9l-2.7-40.4,.2-.1,5,38.3,3.5,18.4c2,9.2,4.3,18.4,7.2,27.4,3.6,11.1,8,21.9,12.8,32.6l1.6,3.9,7.8,15.9,6.9,14.4c1.1,.7,1.6,2.4,2.2,3.5l3.3,6.2,2.3,5.3c.7,1.4,1.5,2.8,2.2,4.2,.4,1,.6,2,1.1,3l2.7,4.8c.9,1.6,1.5,3.3,2.3,4.9l2,4.1,3,7.7,3,6.9,9.6,26.3,4.2,11.1c.5,2.3,.6,4.5,.4,6.8-.2,1.3-.4,2.5-.7,3.8-.3,1.2-.8,2.3-1.1,3.4-.3,1-.2,2.4-.8,3.3l-2,6.8Z" />
            <path class="cls-29"
                d="M645.1,474.6l-18-3.7,4.1-3.7,6-4.8c2.2-1.7,4.7-3.1,6.6-5.1l4.3-3.5c.3,1.5,.1,3,0,4.5-.2,3.2-.7,6.3-1.3,9.5-.4,2.1-.7,4.7-1.7,6.8Z" />
        </g>
        <path class="cls-31"
            d="M422.2,304.5l63.5-66.7,45.1-45.5c1.2-1.8,3.1-3.4,4.6-4.9l8.3-8.4,23.6-24,14-14.3-2.9-10.7c-.3-1.4-.6-3.1,.3-4.4,.3-.4,.8-.5,1.3-.5,4.5-.5,20.7,2.1,24.1,4.6v.6c-.2,.6-.3,1.1-.2,1.8,.2,1.8,1.1,3.6,1.5,5.4,.8,3.6,1.4,7.7,1.8,11.3-1.7,.4-3.1,.6-4.9,.5-2.1-.6-4.1-1-5.3-3.1l-.4-.9c.6-.9,1.9-2.4,2.2-3.3,.1-.3-.1-1.2-.1-1.5l-.4-1.5-18.2,19.5-24.1,25.8-7.5,8.2c-.9,1-2.2,2.2-3,3.3-.2,.3-.2,.5-.2,.8,.1,1.1-.4,1.6-1.1,2.4l-8.5,9.5-12.8,14.3c-2.1,2.3-20,21.2-20.2,22l-65.9,69.5-14.6-9.8Z" />
    </g>
    <rect class="cls-4" x="153.8" y="223.4" width="23.1" height="29.9" />
    <g>
        <path class="cls-47"
            d="M184.9,219.6c0-3-.3-5.6-2.5-7.8-1.9-1.8-4-3.4-5.9-5.2l-1.2-1.2c-3.1-3.5-5.4-7.3-9-10.4,.2,3-.4,5.3-.9,8.1l-1.8,10.8c-1.3-2.3-2.8-4.5-4.3-6.7-1.2-1.8-2.4-3.7-3.8-5.3-2.9-3.4-6.6-6.7-10-9.5l-3.5-2.8-1.2-.9h-.1l.1,.6,.5,2.4c-.6-.9-1.2-1.9-1.8-2.8l-1.2-1.8c-1.8-2-4.6-3.7-6.9-5.1,.3,1.5,.6,3.1,.9,4.6,.9,4.2,1.6,8.5,.9,12.8-.8-.9-.5-3.8-2.5-7.6-1-1.8-3.2-5.1-5.1-7.2-.2-.2-.3-.3-.4-.5l-.1-.1c-1.3-1.4-2.3-3-2.9-4.9-.5-1.4-.7-2.4-1-3s-1.1-2.4-1.3-3.1l-3.5,4.7-.4,.5-.9-.5-8.4-4.8c0,.3,.1,.5,.1,.8,.3,1.7,.2,3.5,.3,5.1v.4c.2,2.8,.6,6.1,.3,9.1-.1,1.1-.3,2.1-.7,3.1-.1,.4-.2,.7-.3,1.1-.6,2.6-1.2,5.2-2,7.7-.4,1.2-.5,2.5-.4,3.8,.1,.8,.3,1.4,.7,2v.4l.1,.4h-.9l-.4,.2,.1,.2h2.1c3.7-.1,7.5-.6,11.2-.7,2.7-.1,5.5,.1,8.2,.2,7.7,.3,18.1,.8,23.7,6.7,1.7,1.8,2.8,3.5,2.9,6,0,.4-.1,1.4,0,1.7,0,0,0,.1,.1,.1h0c.2,.2,.7,.5,.8,.6,.4,.3,.8,.9,1.2,1.6,0,.1,.1,.2,.1,.3,.2,.3,.3,.6,.5,1,.2,.5,.4,.9,.6,1.3,.1,.2,.1,.3,.2,.5,.1,.2,.2,.4,.3,.5,.1,.2,.3,.4,.4,.7,.1,.1,.1,.2,.2,.4h0c.5,1,.7,2.1,1,3.2,1.4,5.7,.9,10.8,.1,16.5h-.3c-1,0-2.1,.1-3.1,.2-1.6,.3-3.2,.7-4.9,1l.2,.2c1.5,1.4,3.1,2.6,4.7,3.9,.1,.1,.2,.1,.2,.2,1.3,1.1,2.6,2.2,3.8,3.5,1.7,1.9,3.2,3.9,4.6,6,.9,1.3,1.7,3.1,3,4.1v.1l.1,.6v.1l.1,.1,1,.5,2.2,1.1c.1-.2,.1-.5,.1-.7,0-.6,0-1.1,.1-1.7,.2-1.9,.3-3.8,.3-5.6h0c0-2.7-.1-5.4,.2-8,0-.3,.1-.7,.1-1,.4,0,.2,0,.6,.2,.3,.2,.6,.4,.9,.5h0c.2,.1,.4,.1,.6,.1h.3c-.3-.7-.6-1.2-1.1-1.8,0,0-.1-.1-.1-.2-.9-.6-1.9-2.5-2.5-3.5-.9-1.7-1.5-3.7-2.5-5.5l-8.7-15.2h0l-1.2-2.2c.7,.4,1.4,.8,2.1,1.2,2.4,1.5,4.8,3,7.1,4.6,1.2,.8,2.5,1.5,3.6,2.5,1.4,1.3,2.3,3.1,3.3,4.7,.7,0,.6,1.1,1.2,1.7v-.3c.1-.7,0-1.5,.1-2.2,.1-.5,.3-.9,.3-1.5,0-1.4-.4-2.9-.6-4.3-.3-2.1,3.5,9.5,4,10.5h0c0,.1,.1,0,0-.2v-.1l.1-.1c2.2-1.8,2.5-9.4,2.8-12.6h0c.1-.7,.1-1.2,.2-1.4v-.1h.1c.5,0,.8-.1,1.2-.3h0c.2-.1,.4-.2,.7-.4-.2-2.1-.4-4-.1-6.2,0,0,0,.1,.1,.1h0c.8,1.1,1.5,2,1.9,3.3,.1,.2,.1,.4,.2,.6l.4,1.5c0-.1,.1-.2,.1-.2,.5-1.8,.2-4.1,.2-6Zm-73.6-41.7c.4-.2,.2-.1,.7-.1,.5,1.1,1,2.1,1.6,3.1,.1,.2,.2,.4,.4,.5,1.2,1.7,4,4.3,4.3,6.3,.2,1.2,.3,2.4,.2,3.6,0,.8,0,1.5-.1,2.3l-.2,.7-.4-.3c-.2-.3-.5-.6-.7-1-.4-.7-.8-1.5-1.2-2.2-2.2-3.7-4.1-6.6-4.5-10.6-.1-.8-.1-1.5-.1-2.3Z" />
        <path class="cls-4"
            d="M182.1,226.6c.2,3.5,.8,7.5,.5,11-.2,2.5-1.1,4.9-1.5,7.5l-.3-.2c-.8,.1-1.5,1.2-2.1,1.7-.2,2-1.1,3.7-1.5,5.6-.4,1.5-.5,3.1-.8,4.6-.4-.2-.2,0-.6-.3l-.4,.1c-1.1-.2-2.8-1.6-3.5-2.5,.1-.4,.1-.2,.1-.6v-.3c-.3-.8-.7-1.3-1.2-1.9,.3-2.1,1.1-4.3,1.7-6.3l.5-3c1.2,.2,1.7,.3,2.5,1.2l.8,.2c1.6-4.5,3.3-10.5,2.4-15.3,.5-.3,.9-.6,1.4-.8,.8,0,1.2-.3,2-.7Z" />
        <path class="cls-40"
            d="M174.2,246c.6,1.1,.9,2.7,1.2,3.8,0,2.8,2.2-2.1,2.8,.6l-1.5,7.2c-1.1-.2-4.1-2.4-4.8-3.3,.1-.4,.1-.2,.1-.6v-.3c-.3-.8-.7-1.3-1.2-1.9,.3-2.1,1.1-4.3,1.7-6.3,.5,.1,1.1,.5,1.7,.8Z" />
        <path class="cls-70"
            d="M182.1,226.6c.2,3.5,.8,7.5,.5,11-.2,2.5-1.1,4.9-1.5,7.5l-.3-.2c-.8,.1-1.5,1.2-2.1,1.7,0-2.2,.6-4.4,1-6.5,.8-4.2,1-8.5,.3-12.8,.9,0,1.3-.3,2.1-.7Z" />
        <path class="cls-4"
            d="M161.2,267.4h-.1c-1.2,1.3-4.1,1.2-5.9,1.7-.4,.1-1,0-1.5-.3-.2-.1-.4-.2-.5-.3h-.1c-1.1-.7-2.3-.7-3.5-.8h-3.9c-.4,0-.8,.1-1.1,.1-.4,0-.8,.1-1.1,.1-.8,.1-1.5,.1-2.3,.2-.9,0-1.9,.1-2.8,.1h-.7c-1.6-.1-3.3-.5-4.9-.9-1-.2-2-.5-2.9-.9-3.6-1.3-6.8-3.4-9.3-6.4-1.1-1.4-1.9-3.1-2.8-4.6l-3.6-5.9h.1c1.8,.5,3.5,.8,5.4,.9h0l-3.3-6.6c-.7-1.3-1.7-2.6-2.3-4l-3.9-9.7c-1.2-3-2.2-5.8-4.6-7.9-1.3-1.2-2.8-1.8-4.4-2.2-.3-.1-.6-.1-1-.2h-.2c-.2,0-.5,0-.7-.1h-2.5c-2.9,.2-5.8,.9-8.5,1-1.5-1.4-2.5-3.7-3.5-5.6l-7.8-16.1,1.9,1.7c3.2,2.7,7.6,5.4,11.7,6.3,4.2,1,8.8,.5,13,.1h2.2c3.7-.1,7.5-.6,11.1-.7,2.7-.1,5.5,.1,8.2,.2,7.7,.3,18.1,.8,23.7,6.7,1.8,2,2.9,3.8,3,6.3,0,.4-.1,1.2,0,1.6h0v.1c.1,.2,.7,.6,.9,.7,.4,.3,.8,.8,1.1,1.4,0,.1,.1,.2,.2,.3,.2,.3,.3,.6,.5,1,.2,.5,.4,.9,.6,1.3,.1,.2,.1,.3,.2,.5,.1,.3,.3,.5,.4,.7,.1,.2,.2,.3,.3,.5,.1,.1,.1,.2,.2,.4h0c.5,1.1,.8,2.3,1.1,3.5,1.4,5.7,.9,10.8,.1,16.5h-.3c-1.1,0-2.1,.1-3.2,.3-1.6,.3-3.1,.7-4.7,.9h-.1c1.5,1.4,3.2,2.7,4.8,4l.1,.1c1.4,1.2,2.8,2.4,4,3.7,1.7,1.9,3.2,3.9,4.6,6,.9,1.3,1.7,3,2.9,4l.1,.1,.1,.7h0c-1-.4-2.1-.5-3.2-.5-.5-.1-.9-.1-1.3,0Z" />
        <path class="cls-44"
            d="M197.5,220c2.3,2.6,3.4,5.9,3.3,9.4h0c-.1,2.7,1,5.7,2,8.2,.5,1.2,1.8,3.6,1.7,4.8-1.8,2.7-3.7,4.8-6.2,6.9-1,.9-1.9,1.7-3.2,2.1l-.2,.1c0-3.1,.9-6.1,1.1-9.1,.1-1.9-.2-3.9-.5-5.8-2.7,3.7-5,7.3-8.2,10.6-1.1,.9-2.3,3.4-3.2,4.6-.4-.3-.7-1-.9-1.5-.9-1.8-1.6-3.5-2.1-5.4,.4-2.5,1.3-4.9,1.5-7.5,.3-3.5-.3-7.5-.5-11-.2-2.1-.4-4-.1-6.2,.9,1.3,1.8,2.4,2.2,4l.4,1.5,.2,1.5,.3-.4c.6-1,.7-2.2,1.2-3.3,.7-1.5,1.6-3,2.2-4.6,1.1-2.9,1.8-6,2.6-8.9l.1,.4c.6,2.5,2,4.6,3.6,6.6l2.7,3Z" />
        <path class="cls-4"
            d="M184.1,224.4l.4,1.5,.2,1.5,.1,.3c.5,1.9,1.4,3.5,2.2,5.3,2,4.7,1.9,9.6,.3,14.4-1.1,.9-2.3,3.4-3.2,4.6-.4-.3-.7-1-.9-1.5-.9-1.8-1.6-3.5-2.1-5.4,.4-2.5,1.3-4.9,1.5-7.5,.3-3.5-.3-7.5-.5-11-.2-2.1-.4-4-.1-6.2,.9,1.3,1.7,2.4,2.1,4Z" />
        <path class="cls-65"
            d="M180.9,272.3h0v.2c-2,3.1-3.9,6.3-6.5,8.9l-1.5,1.6h0l-4.4,4.7-3.4,3.3-.2,.2-.1,.1-.1,.1h0l-2,2c-.6,.6-1.2,1.3-1.8,1.9-.5,.6-1.1,1.2-1.6,1.7h0c-1.7,1.8-3.3,3.5-5.3,5h-.4c-.5-.3-.9-.8-1.1-1.3-.2-.4-.4-.7-.6-1.1l-4.5,.1c-1,0-2-.1-3-.2-1.4-.2-2.7-.5-4.1-.7h0c-.1,0-.2,0-.4-.1h0c-.7-.1-1.4-.3-2.2-.4-2.3-.4-4.9-.5-7.1-1.2-1.7-.6-3.4-1.6-5-2.4-2.5-1.3-5.1-2.6-7.5-4.2-1.3-.9-2.5-1.8-3.6-2.9,.5,0,1.2,.5,1.7,.7,.7,.4,1.6,.7,2.5,.9,.5,.1,1,.2,1.4,.2l-.9-.9-.2-.2c-1.9-2.1-2.7-4.7-3.6-7.3v-.5c0-.2,0-.4-.1-.6,0-.1-.1-.2-.1-.3s0-.1-.1-.2c0-.1,0-.2-.1-.2-.1-.2-.1-.4-.2-.6-.1-.2-.1-.3-.2-.5-.1-.3-.2-.6-.4-.9h0c-.8-1.6-1.8-3.5-2.7-5-.3-.5-.6-.9-.8-1.3-.5-.7-.9-1.3-1.3-1.6-.8-.7-1.9-1.3-2.9-1.9-.3-.1-.6-.3-1-.4h-.1c-.2-.1-.4-.2-.6-.2-1.6-.6-3.3-1.1-4.8-1.4h-.2c-.3,0-.7-.1-1-.2-1-.2-2-.4-3-.3-.1,0-.1-.1-.2-.1h0c-3.2-1.5-5.5-4-7.9-6.5-2.3-2.5-4.5-5.1-6.7-7.7h0c-.5-.6-1-1.1-1.5-1.7-.6-.7-1.2-1.3-1.7-2h0c-.9-1-1.7-1.9-2.6-2.8,1.5,.8,3,1.6,4.6,2.1,.3,.1,.7,.2,1,.3,1.7,.4,3.4,.5,5.2,.7,2.3,.3,4.4,.5,6.6,.7,.6,0,1.2,.1,1.8,.1h0c1.3,.1,2.7,.1,4.1,.1,1,0,2-.1,3-.2-2.8-2.7-5.8-5.3-8.4-8.2-1.8-1.9-3.4-4-5-6.1-.9-1.1-1.8-2.2-2.7-3.3,1.2,.8,2.4,1.4,3.5,1.9,1.8,.8,3.5,1.5,5.6,2.1v-.3c0-1-1.2-4-2.5-6.8s-2.7-5.4-3.5-6l-.1-.3c2.6-.1,5.5-.8,8.4-1h.4c.7-.1,1.4-.1,2.1,0,.2,0,.5,0,.7,.1h.2c.3,0,.6,.1,1,.2,1.6,.3,3.1,1,4.5,2.2,2.4,2.1,3.4,4.9,4.6,7.9l3.9,9.7c.6,1.4,1.6,2.7,2.3,4l3.3,6.6h-.1c-1.9-.1-3.5-.4-5.4-.9h0l3.6,5.9c.9,1.5,1.7,3.2,2.8,4.6,2.4,3,5.6,5.1,9.2,6.4,1,.4,2,.7,3,.9,1.6,.4,3.2,.8,4.8,.9h.7c.9,0,1.9,0,2.8-.1,.8,0,1.5-.1,2.3-.2,.4,0,.8-.1,1.1-.1,.4,0,.8-.1,1.1-.1,1,0,2-.1,3,0h1c1.2,.1,2.4,.1,3.5,.8h0v.2l.1,.3,.3,.1c1.9,.7,3.5,1.7,5.3,2.6l.3,3c-3.8,.1-7.5,.3-11.3-.1v-.5c-.2,0-.4-.1-.7-.1-1.2-.2-2.5-.4-3.7-.6-1.6-.3-3.4-.7-5-.7h-.3c-.5,0-.9,.1-1.3,.2l-.1,.3v.1c.4,.3,.8,.6,1.3,.7,.3,.1,.7,.2,1.1,.3h0l.1,.4h-.2c-.1,0-.3-.1-.4-.1-1.1-.2-2.3-.4-2.9-1.4-2.2-.7-4.6-.9-6.9-1.3-.4-.1-.7-.1-1.1-.2h0c-.2,0-.4-.1-.7-.1-.8-.2-1.5-.3-2.2-.6-.8-.3-1.6-.6-2.3-1-2.6-1.4-4.6-3.7-7.2-5.2v.1h0l3.8,6.7c.6,1.1,1.2,2.4,1.9,3.4,.8,1,1.8,1.9,3,2.7h0c2.9,2.1,6.8,3.7,9.7,4.5,2.8,.7,5.9,.9,8.7,1.7,.7,.2,1.4,.5,2,.8,.2,.1,.3,.1,.5,.2h0c.1,0,.1,.1,.2,.1h0l-1.4,1,.1,.5,.6,.3c.8,.3,1.8,.4,2.7,.4,1.2,0,2.5-.3,3.6-.6l4-1.5h.1l5.3-2,.3,.3c-.5,1.1-1.1,1.9-2,2.6-.2,.1-.4,.3-.6,.4h-.1l-.2,.2c-1.5,1-3.4,1.8-4.9,2.6l-1.1,.6-7.1,3.9-4.5,2.4h.1c1.5,.3,3,.5,4.4,.6,1.8,0,3.6-.2,5.6-.9,.5-.1,.8-.2,1.3-.2,.8-.1,1.1-.3,1.8-.8l.4-.3,.3-.2c.7,0,1.7-.7,2.8-1.6,.3-.3,.7-.6,1.1-.9,.6-.5,1.1-1.1,1.6-1.6,.6-.6,1.2-1.2,1.7-1.8,.4-.4,.7-.8,.9-1l17.3-18.9,1.7-1.8,.4-.4,.1,1.6c0,1.4-.6,2.8-.6,4.2Z" />
        <path class="cls-4"
            d="M147.8,274.3v.5c-1.8,.4-3.3,0-5.1-.2-1.2-.1-2.5-.1-3.8-.2-.9-.2-1.7-.4-2.4-1l.1-.4c2.1-.5,4.6,.1,6.7,.5,1.6,.3,3.1,.4,4.5,.8Z" />
        <path class="cls-70"
            d="M115.5,280.5v.3c-5.4-3.9-9.7-9-14.9-13-1.5-1.2-3.3-2.2-5-3.2,1.4-.1,2.7,.3,4,.5,3.1,.7,7.2,1.8,9.7,4,1.8,1.4,6.1,9.3,6.2,11.4Z" />
        <path class="cls-4"
            d="M156.5,279.1c-2.5,1.8-4.8,3.3-7.7,4.6-1.2,.6-2.5,1.3-3.9,1.4-3.4-1.9-7.6-1.8-11.4-2.8-4.1-1.1-10.1-3.8-12.7-7.2-.7-1-1.3-2.3-1.9-3.4l-3.8-6.8c2.6,1.5,4.6,3.8,7.2,5.2,4.1,2.3,8.8,1.8,13.2,3.2,.8,1.1,2.3,1.2,3.6,1.5,1.7,.4,3.6,.8,5.2,1.5,1.4,.6,2.8,1.4,4.2,1.8,2.6,.8,5.4,1,8,1Z" />
        <path class="cls-39"
            d="M185.5,264.5l-.7,3.1c-.8,1.9-2.9,3.6-4.3,5.2,0-1.5,.6-2.9,.5-4.5l-.1-1.6c.4-.8,.9-1.5,1.5-2.2h3.1Z" />
        <path class="cls-45"
            d="M196,236.1c.3,1.9,.7,4,.5,5.9-.2,3.2-1.1,6.1-1.1,9.3-1.4,.4-2.4,2.4-3.4,3.6-1.9,2.6-3.9,5-5.5,7.8l-.8,1.6h-3.2c-.6,.7-1,1.4-1.5,2.2l-19.4,21.3c-1.5,1.6-6.1,6.9-8.2,7l-.3,.2-.4,.3c-.7,.5-1,.7-1.8,.8-.5,0-.8,.1-1.3,.2-3.7,1.2-6.7,1.1-10.3,.3l12.9-7c1.8-1,4.3-1.9,5.9-3.3,.9-.7,1.5-1.5,2-2.6l-.3-.3-9.7,3.6c-2.1,.7-5,1-7-.1l-.9-1.2,1.7-.6c1.4-.1,3.2-.6,4.5-1.2,2.8-1.3,5.2-2.8,7.8-4.7-2.6,0-5.5-.2-8-1-1.5-.4-2.8-1.2-4.3-1.8-1.7-.7-3.6-1.1-5.3-1.5l-.1-.4c1.3,0,2.4-.8,3.7-.6,1.8,.2,4.3,.4,6.2,0,3.9,.4,6.5,.6,10.3,.5l.1-2.4c-1.8-.9-3.5-1.9-5.4-2.6l-.3-.1-.1-.6c.6,.2,1.2,.1,1.8,0,1.2-.4,2.9,0,3.9-.5,1.4-.7,3-1.1,4.5-.8,.9,.2,1.8,.4,2.5,.6v.1l3.2,.6c.2-.8,0-.7,.1-1.5,.6-5-.4-10.1,.3-15.1,.4,0,.8,.4,1.2,.6,.5,.3,.9,.6,1.5,.6h.3v.3c0,.4,0,.2-.1,.6,.7,.9,2.4,2.4,3.6,2.5l.4-.1c.3,.2-.3-1.1,.3-.9,.3-1.5,.8-2.6,1.1-4.2,.5-1.9,1.1-3.3,1.3-5.3,.6-.6,1.6-1.3,2.4-1.4l.3,.2c.5,1.9,1.2,3.8,2.1,5.5,.2,.5,0,.6,.4,.9,.9-1.3,1.9-3.8,3-4.7,3-3.8,6.1-6.8,8.9-10.6Z" />
    </g>
</svg>